<svg xmlns="http://www.w3.org/2000/svg" xmlns:xlink="http://www.w3.org/1999/xlink" width="500" zoomAndPan="magnify" viewBox="0 0 375 374.999991" height="500" preserveAspectRatio="xMidYMid meet" version="1.0"><defs><g/><clipPath id="id1"><path d="M 150.269531 113.339844 L 244.019531 113.339844 L 244.019531 207 L 150.269531 207 Z M 150.269531 113.339844 " clip-rule="nonzero"/></clipPath></defs><rect x="-37.5" width="450" fill="#ffffff" y="-37.499999" height="449.999989" fill-opacity="1"/><rect x="-37.5" width="450" fill="#ffffff" y="-37.499999" height="449.999989" fill-opacity="1"/><rect x="-37.5" width="450" fill="#ffffff" y="-37.499999" height="449.999989" fill-opacity="1"/><rect x="-37.5" width="450" fill="#ffffff" y="-37.499999" height="449.999989" fill-opacity="1"/><path fill="#282120" d="M 184.207031 135.144531 C 184.207031 135.78125 183.6875 136.300781 183.046875 136.300781 C 182.410156 136.300781 181.890625 135.78125 181.890625 135.144531 C 181.890625 134.386719 181.273438 133.773438 180.515625 133.773438 C 179.757812 133.773438 179.144531 134.386719 179.144531 135.144531 C 179.144531 135.78125 178.625 136.300781 177.984375 136.300781 C 177.347656 136.300781 176.828125 135.78125 176.828125 135.144531 C 176.828125 134.386719 176.214844 133.773438 175.453125 133.773438 C 174.695312 133.773438 174.082031 134.386719 174.082031 135.144531 C 174.082031 137.292969 175.832031 139.039062 177.984375 139.039062 C 178.953125 139.039062 179.835938 138.683594 180.515625 138.105469 C 181.199219 138.683594 182.082031 139.039062 183.046875 139.039062 C 185.203125 139.039062 186.953125 137.292969 186.953125 135.144531 C 186.953125 134.386719 186.339844 133.773438 185.578125 133.773438 C 184.820312 133.773438 184.207031 134.386719 184.207031 135.144531 Z M 184.207031 135.144531 " fill-opacity="1" fill-rule="nonzero"/><path fill="#282120" d="M 167.125 132.214844 L 167.125 134.109375 C 167.125 134.867188 167.738281 135.480469 168.496094 135.480469 C 169.257812 135.480469 169.871094 134.867188 169.871094 134.109375 L 169.871094 132.214844 C 169.871094 131.460938 169.257812 130.847656 168.496094 130.847656 C 167.738281 130.847656 167.125 131.460938 167.125 132.214844 Z M 167.125 132.214844 " fill-opacity="1" fill-rule="nonzero"/><path fill="#282120" d="M 191.164062 132.214844 L 191.164062 134.109375 C 191.164062 134.867188 191.777344 135.480469 192.535156 135.480469 C 193.292969 135.480469 193.910156 134.867188 193.910156 134.109375 L 193.910156 132.214844 C 193.910156 131.460938 193.292969 130.847656 192.535156 130.847656 C 191.777344 130.847656 191.164062 131.460938 191.164062 132.214844 Z M 191.164062 132.214844 " fill-opacity="1" fill-rule="nonzero"/><g clip-path="url(#id1)"><path fill="#282120" d="M 240.941406 187.402344 C 242.828125 184.636719 244.019531 181.566406 244.019531 178.167969 C 244.019531 169.742188 237.328125 162.886719 229.105469 162.886719 C 226.277344 162.886719 223.527344 163.703125 221.148438 165.242188 C 219.039062 166.609375 216.308594 166.609375 214.199219 165.242188 C 211.820312 163.703125 209.066406 162.886719 206.242188 162.886719 C 204.589844 162.886719 203.003906 163.167969 201.519531 163.679688 C 201.402344 159.597656 202.355469 155.824219 201.996094 151.757812 C 201.617188 147.464844 200.691406 143.199219 198.898438 139.261719 C 201.34375 136.160156 202.957031 132.648438 202.957031 128.6875 C 202.957031 125.480469 201.46875 122.289062 200.824219 121.0625 C 200.472656 120.394531 199.644531 120.132812 198.972656 120.484375 C 198.300781 120.835938 198.039062 121.664062 198.390625 122.332031 C 199.53125 124.507812 200.210938 126.882812 200.210938 128.6875 C 200.210938 138.019531 188.839844 145.027344 181.316406 149.660156 C 178.011719 151.699219 175.449219 151.761719 172.128906 149.746094 C 164.0625 145.082031 153.015625 138.691406 153.015625 128.6875 C 153.015625 121.773438 158.472656 116.148438 165.183594 116.148438 C 167.476562 116.148438 169.710938 116.808594 171.644531 118.0625 C 174.664062 120.015625 178.566406 120.015625 181.582031 118.0625 C 183.515625 116.808594 185.75 116.148438 188.042969 116.148438 C 190.585938 116.148438 193.019531 116.949219 195.082031 118.457031 C 195.695312 118.90625 196.550781 118.773438 197 118.164062 C 197.449219 117.554688 197.316406 116.695312 196.707031 116.25 C 194.167969 114.390625 191.171875 113.410156 188.046875 113.410156 C 185.21875 113.410156 182.46875 114.222656 180.089844 115.765625 C 177.976562 117.128906 175.25 117.128906 173.136719 115.765625 C 170.761719 114.222656 168.007812 113.410156 165.183594 113.410156 C 156.957031 113.410156 150.269531 120.265625 150.269531 128.6875 C 150.269531 132.761719 151.746094 136.546875 154.761719 140.175781 C 153.679688 143.6875 153.132812 147.480469 153.011719 152.191406 C 152.945312 154.851562 155.175781 157.144531 157.867188 157 C 160.234375 156.875 162.183594 154.878906 162.238281 152.511719 C 162.285156 150.613281 162.40625 148.835938 162.652344 147.117188 C 165.414062 149.03125 168.265625 150.679688 170.75 152.117188 C 172.628906 153.203125 174.535156 154.152344 176.761719 154.152344 C 179.039062 154.152344 180.878906 153.152344 182.761719 151.992188 C 185.460938 150.328125 188.625 148.378906 191.636719 146.113281 C 192.503906 148.960938 192.84375 151.859375 192.949219 155.09375 C 192.109375 160.453125 192.058594 164.71875 192.777344 168.894531 C 192.886719 169.535156 193.023438 170.175781 193.171875 170.816406 C 191.996094 173 191.328125 175.503906 191.328125 178.167969 C 191.328125 183.347656 193.710938 188.058594 198.613281 192.574219 C 202.65625 196.300781 207.730469 199.238281 211.808594 201.59375 C 213.660156 202.707031 215.613281 203.628906 217.820312 203.628906 C 220.085938 203.628906 221.945312 202.628906 223.820312 201.472656 C 226.636719 199.734375 229.960938 197.6875 233.085938 195.296875 C 233.269531 197.371094 233.234375 199.5 233.082031 201.796875 C 232.925781 204.152344 234.679688 206.332031 237.027344 206.664062 C 239.699219 207.039062 242.125 204.980469 242.300781 202.316406 C 242.621094 193.085938 241.035156 187.703125 240.941406 187.402344 Z M 159.492188 152.445312 C 159.433594 154.898438 155.695312 154.714844 155.757812 152.261719 C 155.851562 148.503906 156.234375 145.378906 156.953125 142.53125 C 157.96875 143.511719 159.046875 144.425781 160.164062 145.296875 C 159.773438 147.390625 159.558594 149.707031 159.492188 152.445312 Z M 239.558594 202.136719 C 239.398438 204.574219 235.65625 204.4375 235.820312 201.980469 C 236.03125 198.855469 236.03125 196.015625 235.628906 193.222656 C 236.761719 192.234375 237.839844 191.191406 238.820312 190.097656 C 239.640625 193.632812 239.871094 197.398438 239.558594 202.136719 Z M 196.894531 141.546875 C 198.148438 144.617188 198.859375 147.878906 199.191406 151.171875 C 197.980469 150.714844 196.613281 150.789062 195.464844 151.390625 C 195.214844 148.914062 194.757812 146.589844 193.953125 144.273438 C 194.984375 143.40625 195.972656 142.496094 196.894531 141.546875 Z M 195.699219 155.273438 C 195.875 154.199219 196.910156 153.410156 198 153.667969 C 198.933594 153.886719 199.558594 154.835938 199.40625 155.777344 C 198.882812 159.019531 198.617188 161.972656 198.808594 164.929688 C 197.53125 165.683594 196.375 166.628906 195.371094 167.722656 C 194.816406 164.007812 194.921875 160.132812 195.699219 155.273438 Z M 222.378906 199.140625 C 219.070312 201.179688 216.507812 201.242188 213.1875 199.226562 C 205.121094 194.558594 194.074219 188.171875 194.074219 178.167969 C 194.074219 171.253906 199.535156 165.628906 206.242188 165.628906 C 208.535156 165.628906 210.769531 166.289062 212.703125 167.539062 C 215.722656 169.496094 219.625 169.496094 222.644531 167.539062 C 224.574219 166.289062 226.808594 165.628906 229.105469 165.628906 C 235.8125 165.628906 241.273438 171.253906 241.273438 178.167969 C 241.273438 180.820312 240.355469 183.28125 238.867188 185.554688 C 237.554688 187.566406 235.792969 189.433594 233.828125 191.148438 C 230.199219 194.320312 225.871094 196.988281 222.378906 199.140625 Z M 222.378906 199.140625 " fill-opacity="1" fill-rule="nonzero"/></g><path fill="#282120" d="M 219.714844 174.316406 C 218.953125 174.316406 218.339844 174.929688 218.339844 175.6875 C 218.339844 176.324219 217.820312 176.839844 217.183594 176.839844 C 216.542969 176.839844 216.023438 176.324219 216.023438 175.6875 C 216.023438 174.929688 215.410156 174.316406 214.652344 174.316406 C 213.894531 174.316406 213.277344 174.929688 213.277344 175.6875 C 213.277344 176.324219 212.757812 176.839844 212.121094 176.839844 C 211.480469 176.839844 210.960938 176.324219 210.960938 175.6875 C 210.960938 174.929688 210.347656 174.316406 209.589844 174.316406 C 208.832031 174.316406 208.214844 174.929688 208.214844 175.6875 C 208.214844 177.832031 209.96875 179.582031 212.121094 179.582031 C 213.085938 179.582031 213.96875 179.226562 214.652344 178.644531 C 215.332031 179.226562 216.214844 179.582031 217.183594 179.582031 C 219.335938 179.582031 221.085938 177.832031 221.085938 175.6875 C 221.085938 174.929688 220.472656 174.316406 219.714844 174.316406 Z M 219.714844 174.316406 " fill-opacity="1" fill-rule="nonzero"/><path fill="#282120" d="M 202.632812 171.386719 C 201.871094 171.386719 201.257812 172 201.257812 172.757812 L 201.257812 174.652344 C 201.257812 175.410156 201.871094 176.023438 202.632812 176.023438 C 203.390625 176.023438 204.003906 175.410156 204.003906 174.652344 L 204.003906 172.757812 C 204.003906 172 203.390625 171.386719 202.632812 171.386719 Z M 202.632812 171.386719 " fill-opacity="1" fill-rule="nonzero"/><path fill="#282120" d="M 228.042969 174.652344 L 228.042969 172.757812 C 228.042969 172 227.429688 171.386719 226.671875 171.386719 C 225.910156 171.386719 225.296875 172 225.296875 172.757812 L 225.296875 174.652344 C 225.296875 175.410156 225.910156 176.023438 226.671875 176.023438 C 226.675781 176.023438 226.679688 176.019531 226.683594 176.019531 C 227.4375 176.011719 228.042969 175.402344 228.042969 174.652344 Z M 228.042969 174.652344 " fill-opacity="1" fill-rule="nonzero"/><g fill="#282120" fill-opacity="1"><g transform="translate(126.882931, 255.713962)"><g><path d="M 20.703125 -3.25 C 20.984375 -3.070312 21.207031 -2.835938 21.375 -2.546875 C 21.539062 -2.265625 21.625 -1.96875 21.625 -1.65625 C 21.625 -1.257812 21.492188 -0.894531 21.234375 -0.5625 C 20.898438 -0.164062 20.390625 0.03125 19.703125 0.03125 C 19.171875 0.03125 18.6875 -0.0859375 18.25 -0.328125 C 16.65625 -1.234375 15.859375 -3.082031 15.859375 -5.875 C 15.859375 -6.664062 15.597656 -7.289062 15.078125 -7.75 C 14.554688 -8.21875 13.8125 -8.453125 12.84375 -8.453125 L 6.640625 -8.453125 L 6.640625 -2.03125 C 6.640625 -1.425781 6.476562 -0.9375 6.15625 -0.5625 C 5.832031 -0.1875 5.40625 0 4.875 0 C 4.238281 0 3.679688 -0.191406 3.203125 -0.578125 C 2.722656 -0.960938 2.484375 -1.445312 2.484375 -2.03125 L 2.484375 -21.203125 C 2.484375 -21.773438 2.675781 -22.253906 3.0625 -22.640625 C 3.457031 -23.023438 3.941406 -23.21875 4.515625 -23.21875 L 14.0625 -23.21875 C 15.21875 -23.21875 16.300781 -22.90625 17.3125 -22.28125 C 18.332031 -21.664062 19.144531 -20.816406 19.75 -19.734375 C 20.363281 -18.648438 20.671875 -17.4375 20.671875 -16.09375 C 20.671875 -14.988281 20.367188 -13.910156 19.765625 -12.859375 C 19.171875 -11.804688 18.398438 -10.96875 17.453125 -10.34375 C 18.835938 -9.375 19.597656 -8.070312 19.734375 -6.4375 C 19.804688 -6.082031 19.84375 -5.738281 19.84375 -5.40625 C 19.925781 -4.71875 20.007812 -4.222656 20.09375 -3.921875 C 20.1875 -3.628906 20.390625 -3.40625 20.703125 -3.25 Z M 13.90625 -11.875 C 14.300781 -11.875 14.6875 -12.0625 15.0625 -12.4375 C 15.4375 -12.8125 15.742188 -13.3125 15.984375 -13.9375 C 16.234375 -14.570312 16.359375 -15.253906 16.359375 -15.984375 C 16.359375 -16.609375 16.234375 -17.179688 15.984375 -17.703125 C 15.742188 -18.222656 15.4375 -18.632812 15.0625 -18.9375 C 14.6875 -19.25 14.300781 -19.40625 13.90625 -19.40625 L 6.640625 -19.40625 L 6.640625 -11.875 Z M 13.90625 -11.875 "/></g></g></g><g fill="#282120" fill-opacity="1"><g transform="translate(154.742835, 255.713962)"><g><path d="M 18.96875 -23.25 C 19.550781 -23.25 20.015625 -23.0625 20.359375 -22.6875 C 20.710938 -22.3125 20.890625 -21.828125 20.890625 -21.234375 L 20.890625 -9.21875 C 20.890625 -7.382812 20.503906 -5.757812 19.734375 -4.34375 C 18.960938 -2.925781 17.878906 -1.816406 16.484375 -1.015625 C 15.085938 -0.222656 13.492188 0.171875 11.703125 0.171875 C 9.910156 0.171875 8.3125 -0.222656 6.90625 -1.015625 C 5.507812 -1.816406 4.421875 -2.925781 3.640625 -4.34375 C 2.867188 -5.757812 2.484375 -7.382812 2.484375 -9.21875 L 2.484375 -21.234375 C 2.484375 -21.804688 2.679688 -22.285156 3.078125 -22.671875 C 3.484375 -23.054688 3.992188 -23.25 4.609375 -23.25 C 5.140625 -23.25 5.601562 -23.054688 6 -22.671875 C 6.394531 -22.285156 6.59375 -21.804688 6.59375 -21.234375 L 6.59375 -9.21875 C 6.59375 -8.15625 6.828125 -7.207031 7.296875 -6.375 C 7.765625 -5.550781 8.390625 -4.914062 9.171875 -4.46875 C 9.953125 -4.03125 10.796875 -3.8125 11.703125 -3.8125 C 12.660156 -3.8125 13.550781 -4.03125 14.375 -4.46875 C 15.207031 -4.914062 15.867188 -5.550781 16.359375 -6.375 C 16.859375 -7.207031 17.109375 -8.15625 17.109375 -9.21875 L 17.109375 -21.234375 C 17.109375 -21.828125 17.273438 -22.3125 17.609375 -22.6875 C 17.941406 -23.0625 18.394531 -23.25 18.96875 -23.25 Z M 18.96875 -23.25 "/></g></g></g><g fill="#8c52ff" fill-opacity="1"><g transform="translate(183.191521, 255.713962)"><g><path d="M 22.625 -23.25 C 23.175781 -23.25 23.65625 -23.054688 24.0625 -22.671875 C 24.476562 -22.285156 24.6875 -21.804688 24.6875 -21.234375 L 24.6875 -2.03125 C 24.6875 -1.445312 24.492188 -0.960938 24.109375 -0.578125 C 23.734375 -0.191406 23.238281 0 22.625 0 C 22 0 21.492188 -0.1875 21.109375 -0.5625 C 20.722656 -0.9375 20.53125 -1.425781 20.53125 -2.03125 L 20.53125 -15.390625 L 15.0625 -7.03125 C 14.84375 -6.769531 14.585938 -6.554688 14.296875 -6.390625 C 14.003906 -6.222656 13.707031 -6.148438 13.40625 -6.171875 C 13.113281 -6.148438 12.820312 -6.222656 12.53125 -6.390625 C 12.25 -6.554688 12 -6.769531 11.78125 -7.03125 L 6.296875 -15.6875 L 6.296875 -2.03125 C 6.296875 -1.425781 6.117188 -0.9375 5.765625 -0.5625 C 5.410156 -0.1875 4.945312 0 4.375 0 C 3.820312 0 3.367188 -0.191406 3.015625 -0.578125 C 2.660156 -0.960938 2.484375 -1.445312 2.484375 -2.03125 L 2.484375 -21.234375 C 2.484375 -21.785156 2.6875 -22.257812 3.09375 -22.65625 C 3.507812 -23.050781 4.003906 -23.25 4.578125 -23.25 C 4.910156 -23.25 5.242188 -23.164062 5.578125 -23 C 5.910156 -22.832031 6.160156 -22.617188 6.328125 -22.359375 L 13.5625 -11.25 L 21 -22.359375 C 21.175781 -22.617188 21.410156 -22.832031 21.703125 -23 C 22.003906 -23.164062 22.3125 -23.25 22.625 -23.25 Z M 22.625 -23.25 "/></g></g></g><g fill="#8c52ff" fill-opacity="1"><g transform="translate(215.429087, 255.713962)"><g><path d="M 22.625 -23.25 C 23.175781 -23.25 23.65625 -23.054688 24.0625 -22.671875 C 24.476562 -22.285156 24.6875 -21.804688 24.6875 -21.234375 L 24.6875 -2.03125 C 24.6875 -1.445312 24.492188 -0.960938 24.109375 -0.578125 C 23.734375 -0.191406 23.238281 0 22.625 0 C 22 0 21.492188 -0.1875 21.109375 -0.5625 C 20.722656 -0.9375 20.53125 -1.425781 20.53125 -2.03125 L 20.53125 -15.390625 L 15.0625 -7.03125 C 14.84375 -6.769531 14.585938 -6.554688 14.296875 -6.390625 C 14.003906 -6.222656 13.707031 -6.148438 13.40625 -6.171875 C 13.113281 -6.148438 12.820312 -6.222656 12.53125 -6.390625 C 12.25 -6.554688 12 -6.769531 11.78125 -7.03125 L 6.296875 -15.6875 L 6.296875 -2.03125 C 6.296875 -1.425781 6.117188 -0.9375 5.765625 -0.5625 C 5.410156 -0.1875 4.945312 0 4.375 0 C 3.820312 0 3.367188 -0.191406 3.015625 -0.578125 C 2.660156 -0.960938 2.484375 -1.445312 2.484375 -2.03125 L 2.484375 -21.234375 C 2.484375 -21.785156 2.6875 -22.257812 3.09375 -22.65625 C 3.507812 -23.050781 4.003906 -23.25 4.578125 -23.25 C 4.910156 -23.25 5.242188 -23.164062 5.578125 -23 C 5.910156 -22.832031 6.160156 -22.617188 6.328125 -22.359375 L 13.5625 -11.25 L 21 -22.359375 C 21.175781 -22.617188 21.410156 -22.832031 21.703125 -23 C 22.003906 -23.164062 22.3125 -23.25 22.625 -23.25 Z M 22.625 -23.25 "/></g></g></g><g fill="#282120" fill-opacity="1"><g transform="translate(247.65636, 255.713962)"><g><path d="M 19.265625 -21.265625 C 19.265625 -20.816406 19.144531 -20.40625 18.90625 -20.03125 L 11.96875 -10.125 L 11.96875 -2.03125 C 11.96875 -1.445312 11.78125 -0.960938 11.40625 -0.578125 C 11.03125 -0.191406 10.578125 0 10.046875 0 C 9.492188 0 9.023438 -0.191406 8.640625 -0.578125 C 8.253906 -0.960938 8.0625 -1.445312 8.0625 -2.03125 L 8.0625 -10.578125 L 1.15625 -19.734375 C 0.757812 -20.265625 0.5625 -20.785156 0.5625 -21.296875 C 0.5625 -21.867188 0.785156 -22.347656 1.234375 -22.734375 C 1.691406 -23.117188 2.175781 -23.3125 2.6875 -23.3125 C 3.300781 -23.3125 3.84375 -23.003906 4.3125 -22.390625 L 10.15625 -14.328125 L 15.625 -22.328125 C 16.09375 -22.984375 16.644531 -23.3125 17.28125 -23.3125 C 17.8125 -23.3125 18.273438 -23.113281 18.671875 -22.71875 C 19.066406 -22.320312 19.265625 -21.835938 19.265625 -21.265625 Z M 19.265625 -21.265625 "/></g></g></g></svg>