<?xml version="1.0" encoding="utf-8"?>
<!-- Generator: Adobe Illustrator 25.4.1, SVG Export Plug-In . SVG Version: 6.00 Build 0)  -->
<svg version="1.1" xmlns="http://www.w3.org/2000/svg" xmlns:xlink="http://www.w3.org/1999/xlink" x="0px" y="0px"
	 viewBox="0 0 800 800" style="enable-background:new 0 0 800 800;" xml:space="preserve">
<style type="text/css">
	.st0{fill:#DC153D;}
	.st1{fill:#292120;}
	.st2{clip-path:url(#SVGID_00000166659033840834264330000004753087762175609275_);}
</style>
<g id="Capa_2">
	<g id="XMLID_00000085212984338282926640000012562255643209318295_">
		<g id="XMLID_00000129925410302971179780000007181724157424476076_">
			<g>
				<path class="st0" d="M675.74,458.32c2.39,2.39,36.23,37.19,31.16,79.83c-2.44,20.53-11.38,21.74-14.61,47.71
					c-0.73,5.87-0.7,9.3,3.9,56.47c2.55,26.15,4.01,40.14-0.98,58.41c-5.23,19.19-11.92,22.43-14.6,23.37
					c-8.26,2.91-18.83-1.74-24.34-8.76c-5.78-7.36-3.93-14.71-3.9-37.97c0.05-25.21-0.03-37.85-4.86-39.92
					c-6.29-2.69-14.97,12.15-34.08,29.21c-10.91,9.74-36.92,32.96-64.26,36.02c-21.08,2.36-38.03-9.1-71.07-32.13
					c-52.59-36.65-78.88-54.97-92.49-91.51c-4.19-11.26-19.04-51.13-6.82-87.63c2.36-7.02,6.47-16.19,6.82-30.18
					c0.5-20.26-7.48-26.36-9.74-44.79c-2.56-20.97,6.75-21.55,10.71-54.52c2.02-16.8,5.82-48.44-11.68-64.26
					c-1.9-1.72-8.67-7.83-16.55-6.81c-10.03,1.3-14.71,13.25-20.45,21.42c-16.43,23.4-49.64,27.31-57.44,28.23
					c-51.54,6.08-92.41-59.49-107.1-48.68c-6.09,4.49,0.13,16.38-8.76,50.63c-2.52,9.72-5.1,16.75-11.68,20.45
					c-6.83,3.83-16.12,3.03-22.39-0.98c-12.79-8.17-12.04-29.02-11.69-38.94c1.16-32.37,17.55-39.15,13.63-62.31
					c-2-11.84-6.2-9.62-16.55-33.1c-7.98-18.11-14.75-33.49-14.6-53.55c0.21-27.92,13.7-48.02,17.52-53.55
					c14.32-20.72,32.66-30.35,40.89-34.08c7.2-3.78,18.35-8.39,32.13-8.76c30.14-0.8,38.89,19.62,66.21,21.42
					c27.22,1.8,29.99-17.72,65.23-22.39c8.53-1.13,41.39-4.36,69.12,14.6c29.89,20.44,47.55,61.47,39.92,94.44
					c-6.1,26.33-25.18,33.87-25.31,62.31c-0.08,16.64,6.39,25.95,11.68,38.95c27.31,67.07-18.57,130.2,4.87,146.04
					c11.13,7.52,20.52-7.37,50.63-2.93c28.92,4.28,31.19,19.63,54.52,22.4c32,3.8,39.51-23.68,75.94-25.32
					C640.84,425.54,668.48,451.06,675.74,458.32z"/>
			</g>
			<g>
			</g>
		</g>
	</g>
</g>
<g id="Capa_1">
	<g>
		<path class="st1" d="M553.28,502.5c-13.53,0.52-4.61,17.45-16.79,18.12c-12.26-0.68-3.24-17.52-16.8-18.12
			c-13.59,0.61-4.57,17.41-16.79,18.12c-12.27-0.69-3.23-17.51-16.8-18.12c-25,4.59,4.63,56.54,33.59,31.08
			C548.65,559.05,578.22,507.08,553.28,502.5z"/>
		<path class="st1" d="M439.94,481.46c-5.05,0-9.12,4.4-9.12,9.84c0.28,7.75-2.62,23.29,9.12,23.45c5.03,0,9.1-4.4,9.1-9.84
			C448.76,497.18,451.65,481.63,439.94,481.46z"/>
		<path class="st1" d="M608.54,504.91v-13.6c-0.05-12.89-18.17-12.87-18.22,0c0,0,0,13.6,0,13.6
			C590.37,517.79,608.48,517.75,608.54,504.91z"/>
		<g>
			<path class="st1" d="M317.69,221.23c-0.07,10.85-15.3,10.87-15.37,0c-0.07-12.87-18.16-12.89-18.22,0
				c-0.06,10.84-15.31,10.87-15.37,0c0-5.44-4.07-9.84-9.12-9.84c-24.87,4.51,4.47,56.53,33.59,31.11
				c16.32,15.69,43.42,1.64,42.71-21.26C335.86,208.37,317.74,208.33,317.69,221.23z"/>
			<path class="st1" d="M204.35,200.2v13.6c0.05,12.89,18.17,12.87,18.22,0c0,0,0-13.6,0-13.6
				C222.51,187.37,204.4,187.34,204.35,200.2z"/>
			<path class="st1" d="M363.85,200.2c0.28,7.73-2.61,23.28,9.1,23.45c11.72-0.17,8.85-15.7,9.12-23.45
				C382,187.37,363.91,187.34,363.85,200.2z"/>
			<g>
				<defs>
					<rect id="SVGID_1_" x="92.51" y="64.67" width="622.04" height="672.51"/>
				</defs>
				<clipPath id="SVGID_00000127002825588150864810000007311605988888638347_">
					<use xlink:href="#SVGID_1_"  style="overflow:visible;"/>
				</clipPath>
				<g style="clip-path:url(#SVGID_00000127002825588150864810000007311605988888638347_);">
					<path class="st1" d="M694.12,596.46c64.02-89.9-32.93-224.73-131.33-159.12c-43.85,28.5-58.51-36.8-130.24-11.22
						c3.71-59.17,7.79-119.91-17.39-175.33c30.49-37.35,34.11-93.21,12.77-130.68c-6.03-11.66-21.57-1.77-16.14,9.12
						c7.57,15.62,12.08,32.68,12.08,45.63c0,67.01-75.45,117.33-125.37,150.59c-21.93,14.64-38.93,15.09-60.96,0.62
						c-53.52-33.49-126.82-79.38-126.82-151.21c0-49.65,36.21-90.03,80.74-90.03c15.21,0,30.04,4.74,42.87,13.74
						c0.39,0.28,0.66,0.43,1.23,0.8c0,0,13.25,8.36,29.79,10.13c25.43,2.72,43.01-24.67,77.78-24.67c16.87,0,33.02,5.75,46.71,16.58
						c10.13,7.69,20.11-8.76,10.78-15.85c-31.71-25.73-77.17-27.18-110.26-3.48c-14.02,9.79-32.11,9.79-46.13,0
						C134.75,13.33,43.59,166.83,122.31,257.36c-5.18,26.57-33.32,120.5,20.6,120.8c36.56-3.88,27.27-45.29,31.75-70.96
						c99.35,71.33,96.52,64.29,192.31-7.21c5.75,20.45,8.01,41.26,8.71,64.48c-6.24,44.54-6.24,76.17,1.48,112.89
						c-47.71,96.35,46.66,177.65,123.66,220.99c12.28,8,25.24,14.62,39.88,14.62c30.44-0.74,73.24-39.48,101.29-59.83
						c1.22,14.89,0.98,30.18-0.03,46.67c-1.04,16.91,10.6,32.56,26.18,34.95c17.73,2.69,33.82-12.09,34.99-31.22
						C705.27,637.27,694.75,598.62,694.12,596.46z M153.7,345.46c-0.39,17.61-25.19,16.3-24.78-1.32
						c0.62-26.98,3.16-49.42,7.93-69.87c6.74,7.04,13.89,13.6,21.3,19.86C155.57,309.16,154.14,325.79,153.7,345.46z M684.95,702.26
						c-1.06,17.5-25.89,16.52-24.8-1.12c1.4-22.44,1.4-42.83-1.27-62.88c7.52-7.1,14.67-14.59,21.18-22.44
						C685.49,641.2,687.02,668.23,684.95,702.26z M401.87,267.2c8.32,22.05,13.04,45.47,15.24,69.11
						c-8.03-3.28-17.11-2.75-24.73,1.57c-1.66-17.78-4.69-34.47-10.03-51.1C389.2,280.55,395.75,274.02,401.87,267.2z
						 M393.94,365.76c1.17-7.71,8.03-13.38,15.27-11.53c6.19,1.57,10.34,8.39,9.33,15.15c-3.47,23.28-5.24,44.48-3.97,65.72
						c-8.48,5.41-16.15,12.2-22.81,20.05C388.08,428.48,388.78,400.66,393.94,365.76z M570.96,680.74
						c-21.95,14.64-38.96,15.09-60.99,0.62c-53.52-33.52-126.82-79.38-126.82-151.21c0-49.65,36.23-90.03,80.74-90.03
						c15.21,0,30.04,4.74,42.87,13.72c47.3,31.17,65.65-14.16,108.83-13.72c66.14-1.74,103.66,88.68,64.77,143.08
						C656.08,623.7,606.96,656.82,570.96,680.74z"/>
				</g>
			</g>
			<g>
				<g>
					<path class="st1" d="M391.28,101.68c10.8,8.54,19.15,19.98,23.76,32.97c0.45,1.27,1.71,2.12,3.08,1.75
						c1.23-0.34,2.2-1.8,1.75-3.08c-4.9-13.77-13.57-26.09-25.05-35.17c-1.06-0.84-2.5-1.03-3.54,0
						C390.41,99.01,390.21,100.84,391.28,101.68L391.28,101.68z"/>
				</g>
			</g>
		</g>
		<g>
			<g>
				<path class="st1" d="M396.83,100.11c7.43,9.22,16.39,18.02,19.5,29.81c0.82,3.11,5.64,1.79,4.82-1.33
					c-3.34-12.69-12.8-22.1-20.79-32.02c-0.85-1.05-2.65-0.88-3.54,0C395.79,97.62,395.98,99.06,396.83,100.11L396.83,100.11z"/>
			</g>
		</g>
		<g>
			<g>
				<path class="st1" d="M399.78,96.71c7.89,7.58,13.29,17.36,15.57,28.06c0.67,3.15,5.49,1.81,4.82-1.33
					c-2.44-11.49-8.39-22.13-16.86-30.27C401,90.95,397.46,94.48,399.78,96.71L399.78,96.71z"/>
			</g>
		</g>
		<g>
			<g>
				<path class="st1" d="M399.09,91.6c5.67,11.01,14.59,19.97,20,31.13c0.59,1.22,2.32,1.54,3.42,0.9c1.24-0.73,1.49-2.2,0.9-3.42
					c-5.4-11.17-14.33-20.12-20-31.13C401.94,86.21,397.62,88.74,399.09,91.6L399.09,91.6z"/>
			</g>
		</g>
		<g>
			<g>
				<path class="st1" d="M397.24,88.93c11.21,12.55,23.23,25.33,29.2,41.37c0.47,1.26,1.69,2.13,3.08,1.75
					c1.22-0.33,2.22-1.8,1.75-3.08c-6.3-16.92-18.65-30.33-30.49-43.58C398.63,82.99,395.1,86.54,397.24,88.93L397.24,88.93z"/>
			</g>
		</g>
		<g>
			<g>
				<path class="st1" d="M388.28,100.17c0.89,0.85,1.77,1.7,2.66,2.55c0.47,0.45,1.11,0.73,1.77,0.73c0.34,0.01,0.67-0.06,0.96-0.22
					c0.31-0.1,0.58-0.27,0.8-0.52c0.44-0.48,0.76-1.1,0.73-1.77c-0.03-0.22-0.06-0.44-0.09-0.66c-0.12-0.42-0.33-0.79-0.64-1.1
					c-0.89-0.85-1.77-1.7-2.66-2.55c-0.47-0.45-1.11-0.73-1.77-0.73c-0.34-0.01-0.67,0.06-0.96,0.22c-0.31,0.1-0.58,0.27-0.8,0.52
					c-0.44,0.48-0.76,1.1-0.73,1.77c0.03,0.22,0.06,0.44,0.09,0.66C387.75,99.49,387.97,99.86,388.28,100.17L388.28,100.17z"/>
			</g>
		</g>
		<g>
			<g>
				<path class="st1" d="M391.28,103.01c0.06,0.06,0.12,0.12,0.18,0.18c0.23,0.24,0.49,0.42,0.8,0.52c0.3,0.16,0.62,0.23,0.96,0.22
					c0.34,0.01,0.67-0.06,0.96-0.22c0.31-0.1,0.58-0.27,0.8-0.52c0.13-0.17,0.26-0.34,0.39-0.51c0.23-0.39,0.34-0.81,0.34-1.26
					c-0.03-0.22-0.06-0.44-0.09-0.66c-0.12-0.42-0.33-0.79-0.64-1.1c-0.06-0.06-0.12-0.12-0.18-0.18c-0.23-0.24-0.49-0.42-0.8-0.52
					c-0.3-0.16-0.62-0.23-0.96-0.22c-0.34-0.01-0.67,0.06-0.96,0.22c-0.31,0.1-0.58,0.27-0.8,0.52c-0.13,0.17-0.26,0.34-0.39,0.51
					c-0.23,0.39-0.34,0.81-0.34,1.26c0.03,0.22,0.06,0.44,0.09,0.66C390.76,102.33,390.97,102.7,391.28,103.01L391.28,103.01z"/>
			</g>
		</g>
		<g>
			<g>
				<path class="st1" d="M415.78,126.05c-3.1-4.5-5.13-9.65-8.63-13.88c-1.7-2.05-3.79-3.76-5.5-5.82c-1.8-2.17-3.5-4.42-5.49-6.43
					c-2.27-2.28-5.81,1.25-3.54,3.54c1.89,1.9,3.53,4.03,5.22,6.1c0.85,1.04,1.72,2.07,2.66,3.03c0.93,0.96,1.98,1.79,2.85,2.81
					c3.37,3.92,5.2,8.95,8.12,13.18c0.77,1.11,2.19,1.61,3.42,0.9C415.98,128.82,416.55,127.16,415.78,126.05L415.78,126.05z"/>
			</g>
		</g>
		<g>
			<g>
				<path class="st1" d="M391.97,103.56c0.1,0.07,0.21,0.15,0.31,0.22c0.3,0.23,0.08,0.08-0.08-0.07c0.19,0.17,0.4,0.32,0.59,0.48
					c0.39,0.33,0.77,0.67,1.14,1.01c0.75,0.7,1.47,1.43,2.17,2.17c1.41,1.49,2.78,3.02,4.27,4.42c0.95,0.9,2.6,1.02,3.54,0
					c0.89-0.97,1.02-2.58,0-3.54c-1.53-1.44-2.93-3.01-4.38-4.53c-1.56-1.64-3.2-3.17-5.04-4.49c-0.5-0.36-1.36-0.41-1.93-0.25
					c-0.58,0.16-1.21,0.61-1.49,1.15C390.39,101.44,390.84,102.74,391.97,103.56L391.97,103.56z"/>
			</g>
		</g>
		<g>
			<g>
				<path class="st1" d="M417.97,114.42c1.2,1.83,2.6,3.53,3.82,5.36c0.6,0.89,1.15,1.81,1.6,2.79c0.05,0.11,0.1,0.22,0.15,0.32
					c0.13,0.28-0.18-0.46-0.01-0.02c0.09,0.25,0.19,0.5,0.27,0.76c0.17,0.55,0.3,1.11,0.4,1.67c0.22,1.29,1.88,2.13,3.08,1.75
					c1.4-0.45,1.98-1.69,1.75-3.08c-0.79-4.73-4.19-8.21-6.72-12.07c-0.72-1.09-2.24-1.65-3.42-0.9
					C417.78,111.7,417.21,113.25,417.97,114.42L417.97,114.42z"/>
			</g>
		</g>
		<g>
			<g>
				<path class="st1" d="M392.28,104c0.43,0.21,0.84,0.47,1.22,0.76c-0.17-0.13-0.34-0.26-0.51-0.39c0.48,0.38,0.92,0.81,1.3,1.29
					c0.81-1.39,1.62-2.79,2.43-4.18c-0.04-0.01-0.08-0.03-0.12-0.05c0.2,0.08,0.4,0.17,0.6,0.25c-0.11-0.05-0.21-0.11-0.31-0.18
					c0.17,0.13,0.34,0.26,0.51,0.39c-0.27-0.21-0.48-0.49-0.71-0.75c-0.11-0.13-0.23-0.24-0.36-0.35c-0.2-0.16-0.44-0.37-0.68-0.51
					c-0.25-0.15-0.53-0.25-0.81-0.35c-0.33-0.1-0.66-0.12-1-0.04c-0.33,0.02-0.64,0.11-0.93,0.3c-0.17,0.13-0.34,0.26-0.51,0.39
					c-0.24,0.23-0.42,0.49-0.52,0.8c-0.11,0.19-0.17,0.41-0.17,0.63c-0.07,0.33-0.06,0.66,0.04,1c0.08,0.2,0.17,0.4,0.25,0.6
					c0.22,0.38,0.52,0.67,0.9,0.9c0.01,0.01,0.02,0.02,0.03,0.02c-0.17-0.13-0.34-0.26-0.51-0.39c0.02,0.02,0.04,0.04,0.06,0.06
					c-0.13-0.17-0.26-0.34-0.39-0.51c0.03,0.03,0.04,0.06,0.06,0.1c-0.08-0.2-0.17-0.4-0.25-0.6c0.15,0.47,0.31,0.83,0.66,1.18
					c0.16,0.16,0.4,0.31,0.6,0.46c0.1,0.07,0.19,0.15,0.29,0.22c-0.17-0.13-0.34-0.26-0.51-0.39c0.5,0.39,0.98,0.8,1.43,1.24
					c0.23,0.24,0.49,0.42,0.8,0.52c0.3,0.16,0.62,0.23,0.96,0.22c0.34,0.01,0.67-0.06,0.96-0.22c0.31-0.1,0.58-0.27,0.8-0.52
					c0.44-0.48,0.76-1.1,0.73-1.77c-0.03-0.22-0.06-0.44-0.09-0.66c-0.12-0.42-0.33-0.79-0.64-1.1c-0.73-0.7-1.51-1.33-2.33-1.92
					c0.38,0.5,0.77,1,1.15,1.49c-0.06-0.27-0.17-0.53-0.32-0.76c-0.29-0.45-0.56-0.68-1-0.99c-0.64,1.52-1.28,3.05-1.93,4.57
					c0.02,0.01,0.04,0.02,0.06,0.02c-0.2-0.08-0.4-0.17-0.6-0.25c0.11,0.05,0.21,0.11,0.31,0.18c-0.17-0.13-0.34-0.26-0.51-0.39
					c0.28,0.22,0.5,0.51,0.74,0.77c0.51,0.57,1.15,0.97,1.88,1.21c0.22,0.03,0.44,0.06,0.66,0.09c0.34,0.01,0.67-0.06,0.96-0.22
					c0.21-0.06,0.4-0.17,0.55-0.32c0.27-0.18,0.49-0.41,0.64-0.7c0.08-0.2,0.17-0.4,0.25-0.6c0.03-0.22,0.06-0.44,0.09-0.66
					c0.01-0.34-0.06-0.67-0.22-0.96c-0.1-0.31-0.27-0.58-0.52-0.8c-0.34-0.44-0.73-0.84-1.16-1.19c-0.59-0.48-1.19-0.93-1.87-1.26
					c-0.29-0.18-0.6-0.28-0.93-0.3c-0.33-0.07-0.66-0.06-1,0.04c-0.33,0.08-0.61,0.23-0.85,0.45c-0.27,0.18-0.49,0.41-0.64,0.7
					c-0.31,0.58-0.46,1.28-0.25,1.93c0.08,0.2,0.17,0.4,0.25,0.6C391.6,103.48,391.9,103.78,392.28,104L392.28,104z"/>
			</g>
		</g>
		<g>
			<g>
				<path class="st1" d="M393.75,86.46c0.75,0.33,1.44,0.77,2.09,1.27c-0.17-0.13-0.34-0.26-0.51-0.39c1.63,1.28,2.94,2.89,4.4,4.34
					c0.93,0.92,2.62,1,3.54,0c0.91-0.99,0.99-2.55,0-3.54c-2.17-2.15-4.12-4.73-6.99-6c-0.64-0.28-1.23-0.44-1.93-0.25
					c-0.58,0.16-1.21,0.61-1.49,1.15c-0.31,0.58-0.46,1.28-0.25,1.93C392.79,85.55,393.17,86.21,393.75,86.46L393.75,86.46z"/>
			</g>
		</g>
		<g>
			<g>
				<path class="st1" d="M398.1,88.84c3.22,0,3.22-5,0-5C394.88,83.84,394.88,88.84,398.1,88.84L398.1,88.84z"/>
			</g>
		</g>
		<g>
			<g>
				<path class="st1" d="M404.72,96.82c9.33,7.03,14.67,18.02,20.04,28.08c1.52,2.84,5.83,0.32,4.32-2.52
					c-5.85-10.95-11.7-22.25-21.83-29.88c-1.08-0.81-2.8-0.17-3.42,0.9C403.07,94.68,403.64,96,404.72,96.82L404.72,96.82z"/>
			</g>
		</g>
		<g>
			<g>
				<path class="st1" d="M392.58,85.61c4.64,3.94,8.67,8.52,12.67,13.09c0.86,0.99,2.66,0.95,3.54,0c0.97-1.05,0.92-2.48,0-3.54
					c-4-4.57-8.03-9.14-12.67-13.09c-1-0.85-2.57-1.05-3.54,0C391.72,83,391.51,84.7,392.58,85.61L392.58,85.61z"/>
			</g>
		</g>
		<g>
			<g>
				<path class="st1" d="M392.66,85.41c5.94,3.68,11.13,8.48,15.81,13.65c4.99,5.52,9.38,11.61,12.93,18.15
					c1.82,3.35,3.38,6.83,4.54,10.47c0.97,3.06,5.8,1.75,4.82-1.33c-2.26-7.13-5.91-13.81-10.15-19.94
					c-4.5-6.52-9.72-12.61-15.63-17.88c-3.06-2.73-6.31-5.26-9.8-7.42C392.44,79.4,389.93,83.72,392.66,85.41L392.66,85.41z"/>
			</g>
		</g>
		<g>
			<g>
				<path class="st1" d="M387.47,82.29c0.48,0.16,0.95,0.33,1.42,0.51c0.32,0.12-0.42-0.19-0.11-0.05c0.11,0.05,0.21,0.1,0.32,0.14
					c0.21,0.1,0.43,0.2,0.64,0.3c0.89,0.44,1.76,0.95,2.59,1.49c0.39,0.26,0.78,0.52,1.17,0.79c0.39,0.28,0.78,0.68,1.21,0.89
					c-0.14-0.07-0.33-0.26-0.09-0.07c0.09,0.07,0.19,0.15,0.28,0.22c0.19,0.15,0.37,0.29,0.55,0.44c0.41,0.34,0.82,0.68,1.23,1.02
					c1,0.84,2.57,1.05,3.54,0c0.85-0.93,1.07-2.64,0-3.54c-3.45-2.9-7.08-5.59-11.41-7c-1.24-0.4-2.78,0.47-3.08,1.75
					C385.41,80.59,386.13,81.86,387.47,82.29L387.47,82.29z"/>
			</g>
		</g>
		<g>
			<g>
				<path class="st1" d="M395.69,86.31c3.22,0,3.22-5,0-5C392.47,81.31,392.47,86.31,395.69,86.31L395.69,86.31z"/>
			</g>
		</g>
		<g>
			<g>
				<path class="st1" d="M394.95,85.82c3.22,0,3.22-5,0-5C391.73,80.82,391.73,85.82,394.95,85.82L394.95,85.82z"/>
			</g>
		</g>
		<g>
			<g>
				<path class="st1" d="M394.66,104.85c0.55,0.95,1.1,1.91,1.65,2.86c0.94-1.22,1.88-2.45,2.82-3.67
					c-0.02-0.01-0.05-0.01-0.07-0.02c0.2,0.08,0.4,0.17,0.6,0.25c-0.06-0.02-0.1-0.05-0.15-0.09c0.17,0.13,0.34,0.26,0.51,0.39
					c-0.07-0.05-0.12-0.11-0.18-0.18c0.13,0.17,0.26,0.34,0.39,0.51c-0.1-0.13-0.18-0.28-0.28-0.41c-0.16-0.22-0.32-0.45-0.51-0.65
					c-0.12-0.12-0.26-0.22-0.39-0.32c-0.19-0.15-0.38-0.29-0.59-0.41c-0.13-0.08-0.25-0.15-0.37-0.24c0.17,0.13,0.34,0.26,0.51,0.39
					c-0.08-0.06-0.14-0.13-0.2-0.2c0.13,0.17,0.26,0.34,0.39,0.51c-0.04-0.05-0.07-0.1-0.09-0.16c0.08,0.2,0.17,0.4,0.25,0.6
					c-0.02-0.05-0.03-0.1-0.04-0.16c0.03,0.22,0.06,0.44,0.09,0.66c0-0.02-0.01-0.05-0.01-0.07c0.01-0.34-0.06-0.67-0.22-0.96
					c-0.1-0.31-0.27-0.58-0.52-0.8c-0.23-0.24-0.49-0.42-0.8-0.52c-0.3-0.16-0.62-0.23-0.96-0.22c-0.65,0.03-1.32,0.24-1.77,0.73
					c-0.43,0.47-0.78,1.11-0.73,1.77c0.04,0.58,0.13,1.1,0.45,1.6c0.28,0.44,0.5,0.66,0.88,0.95c0.19,0.15,0.38,0.29,0.59,0.42
					c0.12,0.07,0.25,0.15,0.36,0.24c-0.17-0.13-0.34-0.26-0.51-0.39c0.08,0.06,0.15,0.13,0.21,0.21c-0.13-0.17-0.26-0.34-0.39-0.51
					c0.06,0.08,0.12,0.17,0.18,0.25c0.17,0.25,0.35,0.49,0.54,0.73c0.37,0.45,0.94,0.78,1.5,0.93c0.22,0.03,0.44,0.06,0.66,0.09
					c0.22-0.03,0.44-0.06,0.66-0.09c0.2-0.08,0.4-0.17,0.6-0.25c0.29-0.16,0.53-0.37,0.7-0.64c0.15-0.16,0.26-0.34,0.32-0.55
					c0.11-0.19,0.17-0.41,0.17-0.63c0.06-0.22,0.06-0.44,0-0.66c-0.02-0.33-0.11-0.64-0.3-0.93c-0.55-0.95-1.1-1.91-1.65-2.86
					c-0.16-0.29-0.37-0.53-0.64-0.7c-0.24-0.22-0.52-0.37-0.85-0.45c-0.33-0.1-0.66-0.12-1-0.04c-0.33,0.02-0.64,0.11-0.93,0.3
					c-0.53,0.34-1,0.86-1.15,1.49C394.26,103.58,394.31,104.25,394.66,104.85L394.66,104.85z"/>
			</g>
		</g>
		<g>
			<g>
				<path class="st1" d="M395.05,106.79c4.28,4.33,8.43,8.77,12.47,13.32c0.87,0.98,2.66,0.95,3.54,0c0.96-1.05,0.93-2.49,0-3.54
					c-4.04-4.55-8.19-8.99-12.47-13.32c-0.92-0.93-2.63-0.99-3.54,0C394.13,104.26,394.07,105.8,395.05,106.79L395.05,106.79z"/>
			</g>
		</g>
	</g>
</g>
</svg>
