<?xml version="1.0" encoding="utf-8"?>
<!-- Generator: Adobe Illustrator 25.4.1, SVG Export Plug-In . SVG Version: 6.00 Build 0)  -->
<svg version="1.1" id="Capa_1" xmlns="http://www.w3.org/2000/svg" xmlns:xlink="http://www.w3.org/1999/xlink" x="0px" y="0px"
	 viewBox="0 0 1200 400" style="enable-background:new 0 0 1200 400;" xml:space="preserve">
<style type="text/css">
	.st0{fill:#FFFFFF;}
	.st1{fill:#6357A1;stroke:#020203;stroke-width:5;stroke-miterlimit:10;}
	.st2{fill:none;stroke:#020203;stroke-width:5;stroke-miterlimit:10;}
	.st3{fill:none;stroke:#020203;stroke-miterlimit:10;}
	.st4{fill:#DC173E;}
	.st5{fill:#2A2121;}
	.st6{clip-path:url(#SVGID_00000142164308668040545830000010521631525156215983_);}
</style>
<g id="Capa_1_00000028291709535798579850000004595881474522789024_">
	<g>
		<g id="XMLID_00000043456792753782709960000017376506462478024070_">
			<g>
				<path class="st0" d="M1159.9,91.8c0,3.2-0.8,6.2-2.1,8.8l-40.7,71.8v58.7c0,4.3-1.1,7.8-3.3,10.5c-2.3,2.7-4.8,4.3-8,4.3
					c-3.2,0-5.9-1.4-8.2-4.3c-2.3-2.7-3.3-6.2-3.3-10.5V169l-40.6-66.5c-2.3-3.8-3.5-7.8-3.5-11.4c0-4.3,1.4-7.8,3.9-10.5
					c2.6-2.7,5.6-4.3,8.6-4.3c3.5,0,6.7,2.3,9.5,6.7l34.4,58.6l32.1-58.1c2.9-4.7,5.9-7.3,9.7-7.3c3.2,0,5.8,1.4,8.2,4.3
					C1158.9,84,1159.9,87.5,1159.9,91.8z"/>
				<path class="st1" d="M1002.8,92.1v139.5c0,4.3-1.1,7.8-3.3,10.5c-2.3,2.7-5,4.3-8.8,4.3c-3.8,0-6.7-1.4-8.9-4.3
					c-2.3-2.9-3.3-6.2-3.3-10.8v-97l-32.1,60.7c-1.4,1.8-2.9,3.5-4.5,4.7c-1.7,1.2-3.3,1.8-5.3,1.7c-1.7,0.3-3.3-0.5-5.3-1.7
					c-1.7-1.2-3.2-2.7-4.5-4.7l-32.1-62.8v99.2c0,4.4-1.1,7.9-3.2,10.8c-2.1,2.7-4.8,4.3-8.2,4.3c-3.2,0-5.9-1.4-8-4.3
					c-2.1-2.7-3.2-6.2-3.2-10.5V92.1c0-4,1.1-7.5,3.5-10.2c2.4-2.7,5.4-4.4,8.8-4.4c1.8,0,3.9,0.8,5.8,1.8c1.8,1.2,3.3,2.7,4.5,4.7
					l42.4,80.8L980.7,84c0.9-1.8,2.4-3.5,4.1-4.7c1.7-1.2,3.5-1.8,5.4-1.8c3.2,0,5.9,1.4,8.5,4.3
					C1001.5,84.3,1002.8,87.8,1002.8,92.1z"/>
				<path class="st1" d="M813.5,92.1v139.5c0,4.3-1.1,7.8-3.3,10.5c-2.3,2.7-5,4.3-8.8,4.3c-3.8,0-6.7-1.4-8.9-4.3
					c-2.3-2.9-3.3-6.2-3.3-10.8v-97l-32.1,60.7c-1.4,1.8-2.9,3.5-4.5,4.7c-1.7,1.2-3.3,1.8-5.3,1.7c-1.7,0.3-3.3-0.5-5.3-1.7
					c-1.7-1.2-3.2-2.7-4.5-4.7l-32.1-62.8v99.2c0,4.4-1.1,7.9-3.2,10.8c-2.1,2.7-4.8,4.3-8.2,4.3c-3.2,0-5.9-1.4-8-4.3
					c-2.1-2.7-3.2-6.2-3.2-10.5V92.1c0-4,1.1-7.5,3.5-10.2c2.4-2.7,5.4-4.4,8.8-4.4c1.8,0,3.9,0.8,5.8,1.8c1.8,1.2,3.3,2.7,4.5,4.7
					l42.4,80.8l43.7-80.9c0.9-1.8,2.4-3.5,4.1-4.7c1.7-1.2,3.5-1.8,5.4-1.8c3.2,0,5.9,1.4,8.5,4.3C812.3,84.3,813.5,87.8,813.5,92.1
					z"/>
				<path class="st0" d="M624.4,91.8v87.3c0,13.2-2.3,25.2-6.7,35.4c-4.5,10.2-10.9,18.4-19.1,24.2c-8.2,5.8-17.6,8.7-28,8.7
					c-10.4,0-20-2.7-28.1-8.7c-8.2-5.8-14.5-13.7-19.2-24.2c-4.5-10.2-6.7-22.2-6.7-35.4V91.8c0-4.3,1.1-7.8,3.5-10.5
					c2.4-2.7,5.4-4.3,8.9-4.3c3.2,0,5.8,1.4,8.2,4.3c2.3,2.7,3.5,6.2,3.5,10.5v87.3c0,7.8,1.4,14.8,4.1,20.7
					c2.9,6.1,6.4,10.5,11,13.7s9.5,4.7,15,4.7c5.6,0,10.9-1.7,15.7-4.7c4.8-3.2,8.8-7.9,11.5-13.7c3-6.1,4.5-13.1,4.5-20.7V91.8
					c0-4.3,0.9-7.9,3-10.5c1.8-2.7,4.7-4.3,7.9-4.3c3.3,0,6.2,1.4,8.2,4.3C623.3,84,624.4,87.5,624.4,91.8z"/>
				<path class="st0" d="M463.6,227.6c0.9,2.1,1.5,4.3,1.5,6.5c0,2.7-0.8,5.6-2.3,7.9c-2.1,2.7-4.8,4.3-8.9,4.3
					c-3.2,0-5.9-0.9-8.6-2.6c-9.4-6.5-14.1-20.1-14.1-40.3c0-5.8-1.5-10.2-4.7-13.5c-3-3.5-7.4-5.2-13-5.2h-36.5v46.7
					c0,4.4-0.9,7.9-2.9,10.8c-1.8,2.7-4.5,4.3-7.4,4.3c-3.8,0-7.1-1.4-9.7-4.3c-2.9-2.7-4.2-6.2-4.2-10.5V92.2
					c0-4.3,1.1-7.8,3.3-10.5c2.3-2.7,5.3-4.3,8.6-4.3h56c6.7,0,13,2.3,19.1,6.7c5.9,4.4,10.9,10.8,14.4,18.4
					c3.5,7.9,5.4,16.6,5.4,26.3c0,7.9-1.8,15.8-5.4,23.6c-3.5,7.8-8,13.7-13.6,18.3c8.2,7,12.6,16.6,13.5,28.4
					c0.3,2.6,0.6,5.2,0.6,7.5c0.6,4.9,0.9,8.7,1.5,10.8c0.6,2.1,1.7,3.8,3.5,4.9C461.4,223.8,462.7,225.5,463.6,227.6z M434.4,130.1
					c0-4.4-0.8-8.7-2.3-12.6c-1.5-3.8-3.2-6.7-5.4-8.8c-2.3-2.3-4.5-3.5-6.7-3.5h-42.5v54.8h42.5l0,0c2.3,0,4.7-1.4,6.7-4.3
					c2.3-2.7,3.9-6.2,5.4-11C433.7,140.3,434.4,135.4,434.4,130.1z"/>
			</g>
			<g>
				<path class="st2" d="M459.7,222.4c1.7,1.4,3,3,3.9,5.2c0.9,2.1,1.5,4.3,1.5,6.5c0,2.7-0.8,5.6-2.3,7.9c-2.1,2.7-4.8,4.3-8.9,4.3
					c-3.2,0-5.9-0.9-8.6-2.6c-9.4-6.5-14.1-20.1-14.1-40.3c0-5.8-1.5-10.2-4.7-13.5c-3-3.5-7.4-5.2-13-5.2h-36.5v46.7
					c0,4.4-0.9,7.9-2.9,10.8c-1.8,2.7-4.5,4.3-7.4,4.3c-3.8,0-7.1-1.4-9.7-4.3c-2.9-2.7-4.2-6.2-4.2-10.5V92.2
					c0-4.3,1.1-7.8,3.3-10.5c2.3-2.7,5.3-4.3,8.6-4.3h56c6.7,0,13,2.3,19.1,6.7c5.9,4.4,10.9,10.8,14.4,18.4
					c3.5,7.9,5.4,16.6,5.4,26.3c0,7.9-1.8,15.8-5.4,23.6s-8,13.7-13.6,18.3c8.2,7,12.6,16.6,13.5,28.4c0.3,2.6,0.6,5.2,0.6,7.5
					c0.6,4.9,0.9,8.7,1.5,10.8C456.8,219.9,458,221.2,459.7,222.4z"/>
				<path class="st2" d="M420.1,159.9c2.3,0,4.7-1.4,6.7-4.3c2.3-2.7,3.9-6.2,5.4-11c1.5-4.7,2.3-9.6,2.3-14.9
					c0-4.4-0.8-8.7-2.3-12.6c-1.5-3.8-3.2-6.7-5.4-8.8c-2.3-2.3-4.5-3.5-6.7-3.5h-42.5v54.8L420.1,159.9L420.1,159.9z"/>
				<path class="st2" d="M613,77.3c3.3,0,6.2,1.4,8.2,4.3c2.1,2.7,3.2,6.2,3.2,10.5v87.3c0,13.2-2.3,25.2-6.7,35.4
					c-4.5,10.2-10.9,18.4-19.1,24.2c-8.2,5.8-17.6,8.7-28,8.7c-10.4,0-20-2.7-28.1-8.7c-8.2-5.9-14.5-13.7-19.2-24.2
					c-4.5-10.2-6.7-22.2-6.7-35.4V92.1c0-4.3,1.1-7.8,3.5-10.5c2.4-2.7,5.4-4.3,8.9-4.3c3.2,0,5.8,1.4,8.2,4.3
					c2.3,2.7,3.5,6.2,3.5,10.5v87.3c0,7.8,1.4,14.8,4.1,20.7c2.9,6.1,6.4,10.5,11,13.7c4.7,3.2,9.5,4.7,15,4.7
					c5.6,0,10.9-1.7,15.7-4.7c4.8-3.2,8.8-7.9,11.5-13.7c3-6.1,4.5-13.1,4.5-20.7V92.1c0-4.3,0.9-7.9,3-10.5
					C607.1,78.7,609.7,77.3,613,77.3z"/>
				<path class="st3" d="M801.4,77.3c3.2,0,5.9,1.4,8.5,4.3c2.4,2.7,3.8,6.2,3.8,10.5v139.5c0,4.3-1.1,7.8-3.3,10.5
					c-2.3,2.7-5,4.3-8.8,4.3c-3.8,0-6.7-1.4-8.9-4.3c-2.3-2.9-3.3-6.2-3.3-10.8v-97l-32.1,60.7c-1.4,1.8-2.9,3.5-4.5,4.7
					c-1.7,1.2-3.3,1.8-5.3,1.7c-1.7,0.3-3.3-0.5-5.3-1.7c-1.7-1.2-3.2-2.7-4.5-4.7l-32.1-62.8v99.2c0,4.4-1.1,7.9-3.2,10.8
					c-2.1,2.7-4.8,4.3-8.2,4.3c-3.2,0-5.9-1.4-8-4.3c-2.1-2.7-3.2-6.2-3.2-10.5V92.1c0-4,1.1-7.5,3.5-10.2c2.4-2.7,5.4-4.4,8.8-4.4
					c1.8,0,3.9,0.8,5.8,1.8c1.8,1.2,3.3,2.7,4.5,4.7l42.4,80.8l43.6-80.9c0.9-1.8,2.4-3.5,4.1-4.7C797.8,77.8,799.6,77.3,801.4,77.3
					z"/>
				<path class="st3" d="M990.6,77.3c3.2,0,5.9,1.4,8.5,4.3c2.4,2.7,3.8,6.2,3.8,10.5v139.5c0,4.3-1.1,7.8-3.3,10.5
					c-2.3,2.7-5,4.3-8.8,4.3c-3.8,0-6.7-1.4-8.9-4.3c-2.3-2.9-3.3-6.2-3.3-10.8v-97l-32.1,60.7c-1.4,1.8-2.9,3.5-4.5,4.7
					c-1.7,1.2-3.3,1.8-5.3,1.7c-1.7,0.3-3.3-0.5-5.3-1.7c-1.7-1.2-3.2-2.7-4.5-4.7l-32.1-62.8v99.2c0,4.4-1.1,7.9-3.2,10.8
					c-2.1,2.7-4.8,4.3-8.2,4.3c-3.2,0-5.9-1.4-8-4.3c-2.1-2.7-3.2-6.2-3.2-10.5V92.1c0-4,1.1-7.5,3.5-10.2c2.4-2.7,5.4-4.4,8.8-4.4
					c1.8,0,3.9,0.8,5.8,1.8c1.8,1.2,3.3,2.7,4.5,4.7l42.4,80.8L980.7,84c0.9-1.8,2.4-3.5,4.1-4.7C986.9,77.8,988.8,77.3,990.6,77.3z
					"/>
				<path class="st2" d="M1159.9,91.8c0,3.2-0.8,6.2-2.1,8.8l-40.7,71.8v58.7c0,4.3-1.1,7.8-3.3,10.5c-2.3,2.7-4.8,4.3-8,4.3
					c-3.2,0-5.9-1.4-8.2-4.3c-2.3-2.7-3.3-6.2-3.3-10.5V169l-40.6-66.5c-2.3-3.8-3.5-7.8-3.5-11.4c0-4.3,1.4-7.8,3.9-10.5
					c2.6-2.7,5.6-4.3,8.6-4.3c3.5,0,6.7,2.3,9.5,6.7l34.4,58.6l32.1-58.1c2.9-4.7,5.9-7.3,9.7-7.3c3.2,0,5.8,1.4,8.2,4.3
					C1158.9,84,1159.9,87.5,1159.9,91.8z"/>
			</g>
		</g>
	</g>
	<g>
		<g id="XMLID_00000085212984338282926640000012562255643209318295_">
			<g id="XMLID_00000129925410302971179780000007181724157424476076_">
				<g>
					<path class="st4" d="M333.6,267.6c2.3-20.7-13.3-37.7-14.3-38.9c-3.3-3.5-16-15.9-32.5-15.3c-16.7,0.7-20.1,14.1-34.7,12.3
						c-10.7-1.4-11.7-8.8-25-10.9c-13.7-2.2-18,5-23.1,1.4c-10.7-7.6,10.4-38.4-2.2-71.1c-2.4-6.4-5.3-10.9-5.3-19
						c0.1-11.3,6-15.9,9.6-24.3c0.1-1.7,0.1-3.3,0.1-5c0-0.4,0-0.7,0.1-1c-0.7-0.8-1.2-1.9-1.2-3.3c-0.1-3.7-0.3-7.3-0.5-10.9
						c-0.7-2.1-1.5-4.1-2.4-6.1c-0.7-1.4-0.8-3-0.4-4.3c-0.7-0.9-1.5-1.9-2.2-2.9c-0.4-0.3-0.7-0.7-1.1-1.2c-1.8-2.5-3.4-5-5.2-7.4
						c-1-0.6-1.7-1.6-2.1-2.8c-0.3-0.4-0.5-0.7-0.7-1.1c-2.3-1.2-3.1-3.6-2.8-5.8c-1.1-0.7-1.8-1.8-2.1-3
						c-11.6-6.2-23.8-4.9-27.3-4.4c-16.2,2.3-17.4,11.8-29.8,10.9c-12.4-0.8-16.4-10.7-30.2-10.3c-6.3,0.2-11.4,2.4-14.7,4.2
						c-3.8,1.8-12.2,6.5-18.7,16.6c-1.8,2.8-7.9,12.5-8,26.1c-0.1,9.8,3,17.3,6.6,26.1c4.8,11.5,6.6,10.4,7.6,16.1
						c1.9,11.3-5.7,14.5-6.2,30.4c-0.1,4.9-0.4,15,5.4,19c2.9,1.9,7.1,2.3,10.3,0.4c2.6-1.5,3.8-4.1,4.8-7.6c0-0.5,0-0.9,0.1-1.4
						c0.6-4.7,0.8-9.5,1.1-14.2c0-0.4,0.1-0.8,0.2-1.2c0.1-1.4,0.7-2.7,1.7-3.5c0.1-3.7,0.1-5.6,1.5-6.7c6.7-5.3,25.4,26.6,49,23.7
						c3.5-0.5,18.7-2.4,26.2-13.8c2.6-3.9,4.8-9.8,9.3-10.4c3.6-0.5,6.7,2.4,7.6,3.3c8,7.7,6.2,23.1,5.3,31.3
						c-1.8,16-6,16.3-4.9,26.5c1,9,4.7,12,4.5,21.9c-0.1,6.9-2.1,11.4-3.1,14.8c-5.6,17.7,1.1,37.2,3.1,42.7
						c6.2,17.8,18.2,26.8,42.3,44.6c15.1,11.3,22.9,16.9,32.5,15.7c12.5-1.5,24.4-12.7,29.4-17.5c8.7-8.3,12.6-15.5,15.5-14.2
						c2.2,1,2.2,7.1,2.2,19.4c0,11.3-0.8,14.9,1.8,18.5c2.5,3.4,7.4,5.6,11.1,4.2c1.1-0.4,4.2-2,6.6-11.4c2.3-8.9,1.6-15.7,0.4-28.4
						c-2.1-22.9-2.1-24.6-1.8-27.5C328.4,278.2,332.5,277.6,333.6,267.6z"/>
				</g>
			</g>
		</g>
		<g>
			<path class="st5" d="M263.7,249.8c-6.2,0.2-2.1,8.5-7.7,8.8c-5.6-0.3-1.5-8.5-7.7-8.8c-6.2,0.3-2.1,8.5-7.7,8.8
				c-5.6-0.3-1.5-8.5-7.7-8.8c-11.4,2.2,2.1,27.6,15.3,15.2C261.6,277.3,275.1,252,263.7,249.8z"/>
			<path class="st5" d="M211.9,239.5c-2.3,0-4.1,2.1-4.1,4.8c0.1,3.8-1.1,11.4,4.1,11.5c2.3,0,4.1-2.1,4.1-4.8
				C215.9,247.1,217.3,239.6,211.9,239.5z"/>
			<path class="st5" d="M288.9,251v-6.6c0-6.3-8.3-6.3-8.3,0v6.6C280.7,257.2,288.9,257.2,288.9,251z"/>
			<g>
				<path class="st5" d="M155.9,112.8c0,5.3-7,5.3-7,0c0-6.3-8.3-6.3-8.3,0c0,5.3-7,5.3-7,0c0-2.7-1.9-4.8-4.1-4.8
					c-11.4,2.2,2.1,27.5,15.3,15.2c7.5,7.6,19.9,0.8,19.6-10.4C164.3,106.5,156,106.4,155.9,112.8z"/>
				<path class="st5" d="M104.2,102.5v6.6c0,6.3,8.3,6.3,8.3,0v-6.6C112.5,96.2,104.3,96.2,104.2,102.5z"/>
				<path class="st5" d="M177.1,102.5c0.1,3.8-1.1,11.4,4.1,11.5c5.4-0.1,4-7.6,4.1-11.5C185.4,96.2,177.2,96.2,177.1,102.5z"/>
				<g>
					<g>
						<g>
							<g>
								<defs>
									<rect id="SVGID_1_" x="53.1" y="36.4" width="284.3" height="327.7"/>
								</defs>
								<clipPath id="SVGID_00000070799590177783363290000015681124284469336982_">
									<use xlink:href="#SVGID_1_"  style="overflow:visible;"/>
								</clipPath>
								<g style="clip-path:url(#SVGID_00000070799590177783363290000015681124284469336982_);">
									<path class="st5" d="M328.1,295.5c29.3-43.8-15-109.4-60.1-77.5c-20.1,13.9-26.7-17.9-59.6-5.4c1.7-28.9,3.5-58.4-8-85.5
										c14-18.2,15.6-45.4,5.8-63.7c-2.8-5.6-9.8-0.8-7.4,4.5c3.4,7.6,5.5,15.9,5.5,22.2c0,32.7-34.5,57.1-57.3,73.4
										c-10,7.1-17.8,7.3-27.9,0.3c-24.4-16.3-58-38.6-58-73.7c0-24.2,16.6-43.8,36.9-43.8c6.9,0,13.8,2.3,19.6,6.7
										c0.2,0.1,0.3,0.2,0.5,0.4c0,0,6,4,13.7,5c11.6,1.3,19.7-12,35.5-12c7.7,0,15.1,2.8,21.3,8.1c4.7,3.7,9.2-4.2,5-7.7
										c-14.5-12.5-35.3-13.3-50.4-1.7c-6.4,4.8-14.7,4.8-21.1,0c-50-33.5-91.8,41.3-55.7,85.3c-2.4,13-15.2,58.7,9.4,58.8
										c16.7-1.9,12.4-22.1,14.5-34.6c45.4,34.7,44.1,31.3,87.9-3.5c2.6,10,3.6,20.1,3.9,31.4c-2.9,21.7-2.9,37.2,0.6,55
										c-21.9,46.9,21.3,86.5,56.6,107.6c5.6,3.9,11.5,7.1,18.2,7.1c13.9-0.3,33.5-19.2,46.3-29.2c0.5,7.2,0.4,14.8,0,22.7
										c-0.5,8.3,4.9,15.9,11.9,17c8.1,1.3,15.4-5.8,16-15.2C333.2,315.4,328.4,296.6,328.1,295.5z M81.1,173.3
										c-0.2,8.6-11.5,8-11.3-0.6c0.3-13.2,1.5-24.1,3.6-34.1c3.1,3.4,6.3,6.6,9.7,9.7C81.9,155.5,81.3,163.7,81.1,173.3z
										 M323.8,347c-0.5,8.5-11.8,8.1-11.4-0.5c0.6-10.9,0.6-20.9-0.6-30.7c3.4-3.5,6.7-7.1,9.7-10.9
										C324.2,317.3,324.8,330.5,323.8,347z M194.5,135.2c3.8,10.7,6,22.2,6.9,33.7c-3.7-1.6-7.9-1.4-11.3,0.7
										c-0.7-8.7-2.2-16.8-4.6-24.8C188.7,141.6,191.7,138.4,194.5,135.2z M190.9,183.1c0.5-3.7,3.7-6.5,6.9-5.6
										c2.8,0.7,4.8,4.1,4.2,7.3c-1.6,11.4-2.4,21.7-1.9,32.1c-3.8,2.7-7.4,5.9-10.5,9.8C188.2,213.7,188.5,200.1,190.9,183.1z
										 M271.7,336.6c-10,7.1-17.8,7.3-27.9,0.3c-24.4-16.3-58-38.6-58-73.7c0-24.2,16.6-43.8,36.9-43.8c6.9,0,13.8,2.3,19.6,6.7
										c21.6,15.2,30-6.9,49.7-6.7c30.2-0.8,47.4,43.2,29.6,69.7C310.7,308.8,288.2,325,271.7,336.6z"/>
								</g>
							</g>
						</g>
					</g>
				</g>
			</g>
		</g>
	</g>
</g>
</svg>
