<?xml version="1.0" encoding="utf-8"?>
<!-- Generator: Adobe Illustrator 25.4.1, SVG Export Plug-In . SVG Version: 6.00 Build 0)  -->
<svg version="1.1" id="Capa_1" xmlns="http://www.w3.org/2000/svg" xmlns:xlink="http://www.w3.org/1999/xlink" x="0px" y="0px"
	 viewBox="0 0 800 400" style="enable-background:new 0 0 800 400;" xml:space="preserve">
<style type="text/css">
	.st0{fill:#FFFFFF;}
	.st1{fill:#6356A1;stroke:#000000;stroke-width:5;stroke-miterlimit:10;}
	.st2{fill:none;stroke:#000000;stroke-width:5;stroke-miterlimit:10;}
	.st3{fill:none;stroke:#000000;stroke-miterlimit:10;}
	.st4{fill:#292120;}
	.st5{clip-path:url(#SVGID_00000091695349959807631160000001971703220390749859_);}
</style>
<g id="Capa_2_00000042726724968925118890000001750828936406193564_">
</g>
<g id="Capa_1_00000028291709535798579850000004595881474522789024_">
	<g>
		<g id="XMLID_00000043456792753782709960000017376506462478024070_">
			<g>
				<path class="st0" d="M770.5,94.7c0,2.1-0.5,4.1-1.4,5.8l-26.9,47.2v38.6c0,2.8-0.7,5.1-2.2,6.9c-1.5,1.8-3.2,2.8-5.3,2.8
					c-2.1,0-3.9-0.9-5.4-2.8c-1.5-1.8-2.2-4.1-2.2-6.9v-40.8l-26.8-43.7c-1.5-2.5-2.3-5.1-2.3-7.5c0-2.8,0.9-5.1,2.6-6.9
					c1.7-1.8,3.7-2.8,5.7-2.8c2.3,0,4.4,1.5,6.3,4.4l22.7,38.5l21.2-38.2c1.9-3.1,3.9-4.8,6.4-4.8c2.1,0,3.8,0.9,5.4,2.8
					C769.8,89.6,770.5,91.9,770.5,94.7z"/>
				<path class="st1" d="M666.7,94.9v91.7c0,2.8-0.7,5.1-2.2,6.9s-3.3,2.8-5.8,2.8s-4.4-0.9-5.9-2.8s-2.2-4.1-2.2-7.1v-63.8
					l-21.2,39.9c-0.9,1.2-1.9,2.3-3,3.1c-1.1,0.8-2.2,1.2-3.5,1.1c-1.1,0.2-2.2-0.3-3.5-1.1c-1.1-0.8-2.1-1.8-3-3.1l-21.2-41.3v65.2
					c0,2.9-0.7,5.2-2.1,7.1c-1.4,1.8-3.2,2.8-5.4,2.8c-2.1,0-3.9-0.9-5.3-2.8c-1.4-1.8-2.1-4.1-2.1-6.9V94.9c0-2.6,0.7-4.9,2.3-6.7
					c1.6-1.8,3.6-2.9,5.8-2.9c1.2,0,2.6,0.5,3.8,1.2c1.2,0.8,2.2,1.8,3,3.1l28,53.1l28.9-53.1c0.6-1.2,1.6-2.3,2.7-3.1
					s2.3-1.2,3.6-1.2c2.1,0,3.9,0.9,5.6,2.8C665.8,89.8,666.7,92.1,666.7,94.9z"/>
				<path class="st1" d="M541.6,94.9v91.7c0,2.8-0.7,5.1-2.2,6.9s-3.3,2.8-5.8,2.8s-4.4-0.9-5.9-2.8s-2.2-4.1-2.2-7.1v-63.8
					l-21.2,39.9c-0.9,1.2-1.9,2.3-3,3.1c-1.1,0.8-2.2,1.2-3.5,1.1c-1.1,0.2-2.2-0.3-3.5-1.1c-1.1-0.8-2.1-1.8-3-3.1l-21.2-41.3v65.2
					c0,2.9-0.7,5.2-2.1,7.1c-1.4,1.8-3.2,2.8-5.4,2.8c-2.1,0-3.9-0.9-5.3-2.8c-1.4-1.8-2.1-4.1-2.1-6.9V94.9c0-2.6,0.7-4.9,2.3-6.7
					c1.6-1.8,3.6-2.9,5.8-2.9c1.2,0,2.6,0.5,3.8,1.2c1.2,0.8,2.2,1.8,3,3.1l28,53.1L527,89.5c0.6-1.2,1.6-2.3,2.7-3.1
					c1.1-0.8,2.3-1.2,3.6-1.2c2.1,0,3.9,0.9,5.6,2.8C540.8,89.8,541.6,92.1,541.6,94.9z"/>
				<path class="st0" d="M416.6,94.7v57.4c0,8.7-1.5,16.6-4.4,23.3c-3,6.7-7.2,12.1-12.6,15.9c-5.4,3.8-11.6,5.7-18.5,5.7
					s-13.2-1.8-18.6-5.7c-5.4-3.8-9.6-9-12.7-15.9c-3-6.7-4.4-14.6-4.4-23.3V94.7c0-2.8,0.7-5.1,2.3-6.9c1.6-1.8,3.6-2.8,5.9-2.8
					c2.1,0,3.8,0.9,5.4,2.8c1.5,1.8,2.3,4.1,2.3,6.9v57.4c0,5.1,0.9,9.7,2.7,13.6c1.9,4,4.2,6.9,7.3,9s6.3,3.1,9.9,3.1
					c3.7,0,7.2-1.1,10.4-3.1c3.2-2.1,5.8-5.2,7.6-9c2-4,3-8.6,3-13.6V94.7c0-2.8,0.6-5.2,2-6.9c1.2-1.8,3.1-2.8,5.2-2.8
					c2.2,0,4.1,0.9,5.4,2.8C415.9,89.6,416.6,91.9,416.6,94.7z"/>
				<path class="st0" d="M310.4,184c0.6,1.4,1,2.8,1,4.3c0,1.8-0.5,3.7-1.5,5.2c-1.4,1.8-3.2,2.8-5.9,2.8c-2.1,0-3.9-0.6-5.7-1.7
					c-6.2-4.3-9.3-13.2-9.3-26.5c0-3.8-1-6.7-3.1-8.9c-2-2.3-4.9-3.4-8.6-3.4h-24.1v30.7c0,2.9-0.6,5.2-1.9,7.1
					c-1.2,1.8-3,2.8-4.9,2.8c-2.5,0-4.7-0.9-6.4-2.8c-1.9-1.8-2.8-4.1-2.8-6.9V95c0-2.8,0.7-5.1,2.2-6.9c1.5-1.8,3.5-2.8,5.7-2.8h37
					c4.4,0,8.6,1.5,12.6,4.4c3.9,2.9,7.2,7.1,9.5,12.1c2.3,5.2,3.6,10.9,3.6,17.3c0,5.2-1.2,10.4-3.6,15.5c-2.3,5.1-5.3,9-9,12
					c5.4,4.6,8.3,10.9,8.9,18.7c0.2,1.7,0.4,3.4,0.4,4.9c0.4,3.2,0.6,5.7,1,7.1c0.4,1.4,1.1,2.5,2.3,3.2
					C308.9,181.5,309.8,182.6,310.4,184z M291.1,119.9c0-2.9-0.5-5.7-1.5-8.3c-1-2.5-2.1-4.4-3.6-5.8c-1.5-1.5-3-2.3-4.4-2.3h-28.1
					v36h28.1l0,0c1.5,0,3.1-0.9,4.4-2.8c1.5-1.8,2.6-4.1,3.6-7.2C290.6,126.6,291.1,123.4,291.1,119.9z"/>
			</g>
			<g>
				<path class="st2" d="M307.8,180.6c1.1,0.9,2,2,2.6,3.4c0.6,1.4,1,2.8,1,4.3c0,1.8-0.5,3.7-1.5,5.2c-1.4,1.8-3.2,2.8-5.9,2.8
					c-2.1,0-3.9-0.6-5.7-1.7c-6.2-4.3-9.3-13.2-9.3-26.5c0-3.8-1-6.7-3.1-8.9c-2-2.3-4.9-3.4-8.6-3.4h-24.1v30.7
					c0,2.9-0.6,5.2-1.9,7.1c-1.2,1.8-3,2.8-4.9,2.8c-2.5,0-4.7-0.9-6.4-2.8c-1.9-1.8-2.8-4.1-2.8-6.9V95c0-2.8,0.7-5.1,2.2-6.9
					c1.5-1.8,3.5-2.8,5.7-2.8h37c4.4,0,8.6,1.5,12.6,4.4c3.9,2.9,7.2,7.1,9.5,12.1c2.3,5.2,3.6,10.9,3.6,17.3
					c0,5.2-1.2,10.4-3.6,15.5s-5.3,9-9,12c5.4,4.6,8.3,10.9,8.9,18.7c0.2,1.7,0.4,3.4,0.4,4.9c0.4,3.2,0.6,5.7,1,7.1
					C305.9,178.9,306.7,179.8,307.8,180.6z"/>
				<path class="st2" d="M281.6,139.5c1.5,0,3.1-0.9,4.4-2.8c1.5-1.8,2.6-4.1,3.6-7.2c1-3.1,1.5-6.3,1.5-9.8c0-2.9-0.5-5.7-1.5-8.3
					c-1-2.5-2.1-4.4-3.6-5.8c-1.5-1.5-3-2.3-4.4-2.3h-28.1v36L281.6,139.5L281.6,139.5z"/>
				<path class="st2" d="M409.1,85.2c2.2,0,4.1,0.9,5.4,2.8c1.4,1.8,2.1,4.1,2.1,6.9v57.4c0,8.7-1.5,16.6-4.4,23.3
					c-3,6.7-7.2,12.1-12.6,15.9c-5.4,3.8-11.6,5.7-18.5,5.7s-13.2-1.8-18.6-5.7s-9.6-9-12.7-15.9c-3-6.7-4.4-14.6-4.4-23.3V94.9
					c0-2.8,0.7-5.1,2.3-6.9c1.6-1.8,3.6-2.8,5.9-2.8c2.1,0,3.8,0.9,5.4,2.8c1.5,1.8,2.3,4.1,2.3,6.9v57.4c0,5.1,0.9,9.7,2.7,13.6
					c1.9,4,4.2,6.9,7.3,9c3.1,2.1,6.3,3.1,9.9,3.1c3.7,0,7.2-1.1,10.4-3.1c3.2-2.1,5.8-5.2,7.6-9c2-4,3-8.6,3-13.6V94.9
					c0-2.8,0.6-5.2,2-6.9C405.2,86.1,406.9,85.2,409.1,85.2z"/>
				<path class="st3" d="M533.6,85.2c2.1,0,3.9,0.9,5.6,2.8c1.6,1.8,2.5,4.1,2.5,6.9v91.7c0,2.8-0.7,5.1-2.2,6.9s-3.3,2.8-5.8,2.8
					s-4.4-0.9-5.9-2.8s-2.2-4.1-2.2-7.1v-63.8l-21.2,39.9c-0.9,1.2-1.9,2.3-3,3.1c-1.1,0.8-2.2,1.2-3.5,1.1
					c-1.1,0.2-2.2-0.3-3.5-1.1c-1.1-0.8-2.1-1.8-3-3.1l-21.2-41.3v65.2c0,2.9-0.7,5.2-2.1,7.1c-1.4,1.8-3.2,2.8-5.4,2.8
					c-2.1,0-3.9-0.9-5.3-2.8c-1.4-1.8-2.1-4.1-2.1-6.9V94.9c0-2.6,0.7-4.9,2.3-6.7c1.6-1.8,3.6-2.9,5.8-2.9c1.2,0,2.6,0.5,3.8,1.2
					c1.2,0.8,2.2,1.8,3,3.1l28,53.1L527,89.5c0.6-1.2,1.6-2.3,2.7-3.1C531.2,85.5,532.4,85.2,533.6,85.2z"/>
				<path class="st3" d="M658.6,85.2c2.1,0,3.9,0.9,5.6,2.8c1.6,1.8,2.5,4.1,2.5,6.9v91.7c0,2.8-0.7,5.1-2.2,6.9s-3.3,2.8-5.8,2.8
					s-4.4-0.9-5.9-2.8s-2.2-4.1-2.2-7.1v-63.8l-21.2,39.9c-0.9,1.2-1.9,2.3-3,3.1c-1.1,0.8-2.2,1.2-3.5,1.1
					c-1.1,0.2-2.2-0.3-3.5-1.1c-1.1-0.8-2.1-1.8-3-3.1l-21.2-41.3v65.2c0,2.9-0.7,5.2-2.1,7.1c-1.4,1.8-3.2,2.8-5.4,2.8
					c-2.1,0-3.9-0.9-5.3-2.8c-1.4-1.8-2.1-4.1-2.1-6.9V94.9c0-2.6,0.7-4.9,2.3-6.7c1.6-1.8,3.6-2.9,5.8-2.9c1.2,0,2.6,0.5,3.8,1.2
					c1.2,0.8,2.2,1.8,3,3.1l28,53.1l28.9-53.1c0.6-1.2,1.6-2.3,2.7-3.1C656.2,85.5,657.4,85.2,658.6,85.2z"/>
				<path class="st2" d="M770.5,94.7c0,2.1-0.5,4.1-1.4,5.8l-26.9,47.2v38.6c0,2.8-0.7,5.1-2.2,6.9c-1.5,1.8-3.2,2.8-5.3,2.8
					c-2.1,0-3.9-0.9-5.4-2.8c-1.5-1.8-2.2-4.1-2.2-6.9v-40.8l-26.8-43.7c-1.5-2.5-2.3-5.1-2.3-7.5c0-2.8,0.9-5.1,2.6-6.9
					c1.7-1.8,3.7-2.8,5.7-2.8c2.3,0,4.4,1.5,6.3,4.4l22.7,38.5l21.2-38.2c1.9-3.1,3.9-4.8,6.4-4.8c2.1,0,3.8,0.9,5.4,2.8
					C769.8,89.6,770.5,91.9,770.5,94.7z"/>
			</g>
		</g>
	</g>
	<g>
		<g id="XMLID_00000085212984338282926640000012562255643209318295_">
			<g id="XMLID_00000129925410302971179780000007181724157424476076_">
				<g>
					<path class="st0" d="M310,266.9c2.3-20.7-13.3-37.7-14.3-38.9c-3.3-3.5-16-15.9-32.5-15.3c-16.7,0.7-20.1,14.1-34.7,12.3
						c-10.7-1.4-11.7-8.8-25-10.9c-13.7-2.2-18,5-23.1,1.4c-10.7-7.6,10.4-38.4-2.2-71.1c-2.4-6.4-5.3-10.9-5.3-19
						c0.1-11.3,6-15.9,9.6-24.3c0.1-1.7,0.1-3.3,0.1-5c0-0.4,0-0.7,0.1-1c-0.7-0.8-1.2-1.9-1.2-3.3c-0.1-3.7-0.3-7.3-0.5-10.9
						c-0.7-2.1-1.5-4.1-2.4-6.1c-0.7-1.4-0.8-3-0.4-4.3c-0.7-0.9-1.5-1.9-2.2-2.9c-0.4-0.3-0.7-0.7-1.1-1.2c-1.8-2.5-3.4-5-5.2-7.4
						c-1-0.6-1.7-1.6-2.1-2.8c-0.3-0.4-0.5-0.7-0.7-1.1c-2.3-1.2-3.1-3.6-2.8-5.8c-1.1-0.7-1.8-1.8-2.1-3
						c-11.6-6.2-23.8-4.9-27.3-4.4c-16.2,2.3-17.4,11.8-29.8,10.9C92.5,52,88.5,42.1,74.7,42.5c-6.3,0.2-11.4,2.4-14.7,4.2
						c-3.8,1.8-12.2,6.5-18.7,16.6c-1.8,2.8-7.9,12.5-8,26.1c-0.1,9.8,3,17.3,6.6,26.1c4.8,11.5,6.6,10.4,7.6,16.1
						c1.9,11.3-5.7,14.5-6.2,30.4c-0.1,4.9-0.4,15,5.4,19c2.9,1.9,7.1,2.3,10.3,0.4c2.6-1.5,3.8-4.1,4.8-7.6c0-0.5,0-0.9,0.1-1.4
						c0.6-4.7,0.8-9.5,1.1-14.2c0-0.4,0.1-0.8,0.2-1.2c0.1-1.4,0.7-2.7,1.7-3.5c0.1-3.7,0.1-5.6,1.5-6.7c6.7-5.3,25.4,26.6,49,23.7
						c3.5-0.5,18.7-2.4,26.2-13.8c2.6-3.9,4.8-9.8,9.3-10.4c3.6-0.5,6.7,2.4,7.6,3.3c8,7.7,6.2,23.1,5.3,31.3
						c-1.8,16-6,16.3-4.9,26.5c1,9,4.7,12,4.5,21.9c-0.1,6.9-2.1,11.4-3.1,14.8c-5.6,17.7,1.1,37.2,3.1,42.7
						c6.2,17.8,18.2,26.8,42.3,44.6c15.1,11.3,22.9,16.9,32.5,15.7c12.5-1.5,24.4-12.7,29.4-17.5c8.7-8.3,12.6-15.5,15.5-14.2
						c2.2,1,2.2,7.1,2.2,19.4c0,11.3-0.8,14.9,1.8,18.5c2.5,3.4,7.4,5.6,11.1,4.2c1.1-0.4,4.2-2,6.6-11.4c2.3-8.9,1.6-15.7,0.4-28.4
						c-2.1-22.9-2.1-24.6-1.8-27.5C304.8,277.5,308.9,276.9,310,266.9z"/>
				</g>
			</g>
		</g>
		<g>
			<path class="st4" d="M240.1,249.1c-6.2,0.2-2.1,8.5-7.7,8.8c-5.6-0.3-1.5-8.5-7.7-8.8c-6.2,0.3-2.1,8.5-7.7,8.8
				c-5.6-0.3-1.5-8.5-7.7-8.8c-11.4,2.2,2.1,27.6,15.3,15.2C238,276.6,251.5,251.3,240.1,249.1z"/>
			<path class="st4" d="M188.3,238.8c-2.3,0-4.1,2.1-4.1,4.8c0.1,3.8-1.1,11.4,4.1,11.5c2.3,0,4.1-2.1,4.1-4.8
				C192.3,246.4,193.7,238.9,188.3,238.8z"/>
			<path class="st4" d="M265.3,250.3v-6.6c0-6.3-8.3-6.3-8.3,0v6.6C257.1,256.5,265.3,256.5,265.3,250.3z"/>
			<g>
				<path class="st4" d="M132.3,112.1c0,5.3-7,5.3-7,0c0-6.3-8.3-6.3-8.3,0c0,5.3-7,5.3-7,0c0-2.7-1.9-4.8-4.1-4.8
					c-11.4,2.2,2.1,27.5,15.3,15.2c7.5,7.6,19.9,0.8,19.6-10.4C140.7,105.8,132.4,105.7,132.3,112.1z"/>
				<path class="st4" d="M80.6,101.8v6.6c0,6.3,8.3,6.3,8.3,0v-6.6C88.9,95.5,80.7,95.5,80.6,101.8z"/>
				<path class="st4" d="M153.5,101.8c0.1,3.8-1.1,11.4,4.1,11.5c5.4-0.1,4-7.6,4.1-11.5C161.8,95.5,153.6,95.5,153.5,101.8z"/>
				<g>
					<g>
						<g>
							<defs>
								<rect id="SVGID_1_" x="29.5" y="35.7" width="284.3" height="327.7"/>
							</defs>
							<clipPath id="SVGID_00000023986940807448825080000013013248279402470546_">
								<use xlink:href="#SVGID_1_"  style="overflow:visible;"/>
							</clipPath>
							<g style="clip-path:url(#SVGID_00000023986940807448825080000013013248279402470546_);">
								<path class="st4" d="M304.5,294.8c29.3-43.8-15-109.4-60.1-77.5c-20.1,13.9-26.7-17.9-59.6-5.4c1.7-28.9,3.5-58.4-8-85.5
									c14-18.2,15.6-45.4,5.8-63.7c-2.8-5.6-9.8-0.8-7.4,4.5c3.4,7.6,5.5,15.9,5.5,22.2c0,32.7-34.5,57.1-57.3,73.4
									c-10,7.1-17.8,7.3-27.9,0.3c-24.4-16.3-58-38.6-58-73.7c0-24.2,16.6-43.8,36.9-43.8c6.9,0,13.8,2.3,19.6,6.7
									c0.2,0.1,0.3,0.2,0.5,0.4c0,0,6,4,13.7,5c11.6,1.3,19.7-12,35.5-12c7.7,0,15.1,2.8,21.3,8.1c4.7,3.7,9.2-4.2,5-7.7
									c-14.5-12.5-35.3-13.3-50.4-1.7c-6.4,4.8-14.7,4.8-21.1,0c-50-33.5-91.8,41.3-55.7,85.3c-2.4,13-15.2,58.7,9.4,58.8
									c16.7-1.9,12.4-22.1,14.5-34.6c45.4,34.7,44.1,31.3,87.9-3.5c2.6,10,3.6,20.1,3.9,31.4c-2.9,21.7-2.9,37.2,0.6,55
									c-21.9,46.9,21.3,86.5,56.6,107.6c5.6,3.9,11.5,7.1,18.2,7.1c13.9-0.3,33.5-19.2,46.3-29.2c0.5,7.2,0.4,14.8,0,22.7
									c-0.5,8.3,4.9,15.9,11.9,17c8.1,1.3,15.4-5.8,16-15.2C309.6,314.7,304.8,295.9,304.5,294.8z M57.5,172.6
									c-0.2,8.6-11.5,8-11.3-0.6c0.3-13.2,1.5-24.1,3.6-34.1c3.1,3.4,6.3,6.6,9.7,9.7C58.3,154.8,57.7,163,57.5,172.6z
									 M300.2,346.3c-0.5,8.5-11.8,8.1-11.4-0.5c0.6-10.9,0.6-20.9-0.6-30.7c3.4-3.5,6.7-7.1,9.7-10.9
									C300.6,316.6,301.2,329.8,300.2,346.3z M170.9,134.5c3.8,10.7,6,22.2,6.9,33.7c-3.7-1.6-7.9-1.4-11.3,0.7
									c-0.7-8.7-2.2-16.8-4.6-24.8C165.1,140.9,168.1,137.7,170.9,134.5z M167.3,182.4c0.5-3.7,3.7-6.5,6.9-5.6
									c2.8,0.7,4.8,4.1,4.2,7.3c-1.6,11.4-2.4,21.7-1.9,32.1c-3.8,2.7-7.4,5.9-10.5,9.8C164.6,213,164.9,199.4,167.3,182.4z
									 M248.1,335.9c-10,7.1-17.8,7.3-27.9,0.3c-24.4-16.3-58-38.6-58-73.7c0-24.2,16.6-43.8,36.9-43.8c6.9,0,13.8,2.3,19.6,6.7
									c21.6,15.2,30-6.9,49.7-6.7c30.2-0.8,47.4,43.2,29.6,69.7C287.1,308.1,264.6,324.3,248.1,335.9z"/>
							</g>
						</g>
					</g>
				</g>
			</g>
		</g>
	</g>
</g>
</svg>
