<?xml version="1.0" encoding="utf-8"?>
<!-- Generator: Adobe Illustrator 25.4.1, SVG Export Plug-In . SVG Version: 6.00 Build 0)  -->
<svg version="1.1" id="Capa_1" xmlns="http://www.w3.org/2000/svg" xmlns:xlink="http://www.w3.org/1999/xlink" x="0px" y="0px"
	 viewBox="0 0 800 400" style="enable-background:new 0 0 800 400;" xml:space="preserve">
<style type="text/css">
	.st0{fill:#292120;}
	.st1{clip-path:url(#SVGID_00000094605554759162151580000016598358270490608267_);}
	.st2{fill:#6356A1;}
</style>
<path class="st0" d="M132.34,108.76c0,1.77-1.46,3.21-3.26,3.21c-1.79,0-3.25-1.44-3.25-3.21c0-2.1-1.73-3.81-3.86-3.81
	s-3.85,1.7-3.85,3.81c0,1.77-1.46,3.21-3.26,3.21c-1.79,0-3.25-1.44-3.25-3.21c0-2.1-1.72-3.81-3.86-3.81
	c-2.13,0-3.85,1.7-3.85,3.81c0,5.96,4.92,10.81,10.96,10.81c2.72,0,5.2-0.99,7.11-2.59c1.92,1.6,4.4,2.59,7.11,2.59
	c6.06,0,10.97-4.85,10.97-10.81c0-2.1-1.72-3.81-3.86-3.81C134.06,104.95,132.34,106.65,132.34,108.76z"/>
<path class="st0" d="M84.35,100.62v5.26c0,2.1,1.72,3.81,3.85,3.81c2.14,0,3.86-1.7,3.86-3.81v-5.26c0-2.09-1.72-3.79-3.86-3.79
	C86.07,96.83,84.35,98.53,84.35,100.62z"/>
<path class="st0" d="M151.88,100.62v5.26c0,2.1,1.72,3.81,3.85,3.81c2.13,0,3.86-1.7,3.86-3.81v-5.26c0-2.09-1.73-3.79-3.86-3.79
	C153.6,96.83,151.88,98.53,151.88,100.62z"/>
<g>
	<defs>
		<rect id="SVGID_1_" x="36.99" y="48.24" width="263.38" height="259.96"/>
	</defs>
	<clipPath id="SVGID_00000110445064064150407710000013411659591566779527_">
		<use xlink:href="#SVGID_1_"  style="overflow:visible;"/>
	</clipPath>
	<g style="clip-path:url(#SVGID_00000110445064064150407710000013411659591566779527_);">
		<path class="st0" d="M291.72,253.8c5.3-7.68,8.65-16.2,8.65-25.63c0-23.39-18.8-42.41-41.9-42.41c-7.95,0-15.67,2.27-22.35,6.54
			c-5.93,3.79-13.6,3.79-19.52,0c-6.68-4.27-14.42-6.54-22.35-6.54c-4.64,0-9.1,0.78-13.27,2.2c-0.33-11.33,2.35-21.8,1.34-33.09
			c-1.06-11.92-3.67-23.76-8.7-34.68c6.87-8.61,11.4-18.36,11.4-29.35c0-8.9-4.18-17.76-5.99-21.16c-0.99-1.85-3.31-2.58-5.2-1.6
			c-1.89,0.98-2.62,3.27-1.64,5.13c3.2,6.04,5.11,12.63,5.11,17.64c0,25.9-31.95,45.35-53.08,58.21
			c-9.28,5.66-16.48,5.83-25.81,0.24c-22.66-12.95-53.7-30.68-53.7-58.45c0-19.19,15.33-34.8,34.18-34.8
			c6.44,0,12.72,1.83,18.15,5.31c8.48,5.42,19.45,5.42,27.92,0c5.43-3.48,11.71-5.31,18.15-5.31c7.14,0,13.98,2.22,19.78,6.41
			c1.72,1.25,4.13,0.88,5.39-0.81c1.26-1.69,0.89-4.08-0.82-5.31c-7.13-5.16-15.55-7.88-24.33-7.88c-7.95,0-15.67,2.26-22.35,6.54
			c-5.94,3.78-13.6,3.78-19.53,0c-6.67-4.28-14.41-6.54-22.34-6.54c-23.11,0-41.9,19.03-41.9,42.4c0,11.31,4.15,21.81,12.62,31.89
			c-3.04,9.75-4.58,20.27-4.92,33.35c-0.19,7.38,6.08,13.75,13.64,13.35c6.65-0.35,12.13-5.89,12.28-12.46
			c0.13-5.27,0.47-10.2,1.16-14.97c7.76,5.31,15.77,9.89,22.75,13.88c5.28,3.01,10.63,5.65,16.89,5.65c6.4,0,11.57-2.78,16.86-6
			c7.58-4.62,16.47-10.03,24.93-16.32c2.44,7.9,3.39,15.95,3.69,24.93c-2.36,14.88-2.5,26.71-0.48,38.31
			c0.31,1.78,0.69,3.56,1.11,5.33c-3.3,6.06-5.18,13.01-5.18,20.4c0,14.38,6.69,27.45,20.47,39.99
			c11.36,10.34,25.61,18.5,37.07,25.03c5.2,3.09,10.69,5.65,16.89,5.65c6.36,0,11.59-2.78,16.86-5.98
			c7.91-4.82,17.25-10.51,26.03-17.14c0.52,5.76,0.42,11.67-0.01,18.04c-0.44,6.54,4.49,12.59,11.08,13.51
			c7.51,1.04,14.32-4.67,14.81-12.07C296.44,269.58,291.99,254.64,291.72,253.8z M62.9,156.78c-0.16,6.81-10.67,6.3-10.49-0.51
			c0.26-10.43,1.34-19.1,3.36-27.01c2.85,2.72,5.88,5.26,9.02,7.68C63.69,142.75,63.09,149.18,62.9,156.78z M287.84,294.7
			c-0.45,6.77-10.96,6.39-10.5-0.43c0.59-8.67,0.59-16.56-0.54-24.31c3.18-2.74,6.21-5.64,8.97-8.67
			C288.07,271.1,288.72,281.55,287.84,294.7z M167.98,126.53c3.52,8.52,5.52,17.58,6.45,26.71c-3.4-1.27-7.24-1.06-10.47,0.61
			c-0.7-6.87-1.99-13.32-4.25-19.75C162.61,131.69,165.39,129.16,167.98,126.53z M164.62,164.63c0.49-2.98,3.4-5.17,6.46-4.46
			c2.62,0.61,4.38,3.24,3.95,5.85c-1.47,9-2.22,17.2-1.68,25.4c-3.59,2.09-6.84,4.72-9.66,7.75
			C162.14,188.87,162.44,178.11,164.62,164.63z M239.58,286.38c-9.3,5.66-16.49,5.83-25.82,0.24c-22.66-12.96-53.7-30.68-53.7-58.45
			c0-19.19,15.34-34.8,34.18-34.8c6.44,0,12.72,1.83,18.15,5.3c8.48,5.43,19.45,5.43,27.93,0c5.42-3.47,11.7-5.3,18.15-5.3
			c18.84,0,34.18,15.61,34.18,34.8c0,7.36-2.58,14.19-6.76,20.5c-3.69,5.58-8.64,10.77-14.16,15.53
			C261.55,273,249.39,280.41,239.58,286.38z"/>
	</g>
</g>
<path class="st0" d="M232.09,217.48c-2.14,0-3.86,1.7-3.86,3.81c0,1.77-1.46,3.2-3.25,3.2c-1.8,0-3.26-1.43-3.26-3.2
	c0-2.1-1.72-3.81-3.85-3.81s-3.86,1.7-3.86,3.81c0,1.77-1.46,3.2-3.25,3.2c-1.8,0-3.26-1.43-3.26-3.2c0-2.1-1.72-3.81-3.85-3.81
	s-3.86,1.7-3.86,3.81c0,5.95,4.93,10.81,10.97,10.81c2.71,0,5.19-0.99,7.11-2.6c1.91,1.62,4.39,2.6,7.11,2.6
	c6.05,0,10.96-4.86,10.96-10.81C235.94,219.18,234.22,217.48,232.09,217.48z"/>
<path class="st0" d="M184.1,209.35c-2.14,0-3.86,1.7-3.86,3.81v5.26c0,2.1,1.72,3.81,3.86,3.81c2.13,0,3.85-1.7,3.85-3.81v-5.26
	C187.95,211.05,186.23,209.35,184.1,209.35z"/>
<path class="st0" d="M255.49,218.41v-5.26c0-2.1-1.72-3.81-3.85-3.81c-2.14,0-3.86,1.7-3.86,3.81v5.26c0,2.1,1.72,3.81,3.86,3.81
	c0.01,0,0.02-0.01,0.03-0.01C253.79,222.19,255.49,220.5,255.49,218.41z"/>
<g>
	<g transform="translate(126.882931, 255.713962)">
		<g>
			<path class="st0" d="M262.95-34.27c0.88,0.56,1.58,1.29,2.11,2.19c0.52,0.88,0.79,1.8,0.79,2.77c0,1.24-0.42,2.37-1.23,3.4
				c-1.06,1.24-2.65,1.85-4.81,1.85c-1.67,0-3.19-0.36-4.57-1.12c-5.01-2.82-7.51-8.57-7.51-17.27c0-2.46-0.82-4.4-2.46-5.84
				c-1.65-1.46-3.98-2.19-7.02-2.19h-19.5v19.99c0,1.88-0.52,3.4-1.52,4.57c-1.02,1.17-2.36,1.75-4.03,1.75c-2,0-3.76-0.6-5.25-1.8
				c-1.51-1.19-2.26-2.7-2.26-4.52v-59.68c0-1.78,0.6-3.27,1.82-4.48c1.24-1.19,2.76-1.8,4.57-1.8h30c3.63,0,7.03,0.97,10.21,2.92
				c3.2,1.92,5.76,4.56,7.66,7.93c1.93,3.38,2.9,7.15,2.9,11.33c0,3.44-0.96,6.8-2.85,10.07c-1.87,3.28-4.3,5.89-7.27,7.83
				c4.35,3.02,6.74,7.08,7.17,12.16c0.22,1.11,0.34,2.18,0.34,3.21c0.26,2.14,0.52,3.68,0.79,4.62
				C261.33-35.45,261.97-34.76,262.95-34.27z M241.59-61.12c1.24,0,2.46-0.58,3.63-1.75c1.18-1.17,2.14-2.72,2.9-4.67
				c0.79-1.97,1.18-4.1,1.18-6.37c0-1.95-0.39-3.72-1.18-5.35c-0.76-1.62-1.72-2.89-2.9-3.84c-1.18-0.97-2.39-1.46-3.63-1.46h-22.83
				v23.45H241.59z"/>
		</g>
	</g>
</g>
<g>
	<g transform="translate(154.742835, 255.713962)">
		<g>
			<path class="st0" d="M317.2-96.53c1.83,0,3.29,0.58,4.37,1.75c1.1,1.17,1.67,2.68,1.67,4.52v37.41c0,5.72-1.22,10.77-3.63,15.18
				c-2.43,4.41-5.83,7.87-10.21,10.36c-4.4,2.47-9.4,3.7-15.03,3.7c-5.64,0-10.66-1.23-15.08-3.7c-4.4-2.49-7.81-5.95-10.26-10.36
				c-2.43-4.4-3.63-9.46-3.63-15.18v-37.41c0-1.78,0.61-3.27,1.87-4.48c1.28-1.19,2.87-1.8,4.81-1.8c1.67,0,3.12,0.61,4.37,1.8
				c1.24,1.2,1.87,2.7,1.87,4.48v37.41c0,3.31,0.74,6.26,2.21,8.85c1.47,2.57,3.44,4.55,5.89,5.93c2.46,1.36,5.11,2.04,7.96,2.04
				c3.01,0,5.81-0.68,8.4-2.04c2.61-1.39,4.69-3.37,6.24-5.93c1.57-2.59,2.36-5.55,2.36-8.85v-37.41c0-1.85,0.52-3.36,1.57-4.52
				C313.97-95.95,315.4-96.53,317.2-96.53z"/>
		</g>
	</g>
</g>
<g>
	<g transform="translate(183.191521, 255.713962)">
		<g>
			<path class="st2" d="M389.66-96.53c1.73,0,3.24,0.61,4.52,1.8c1.3,1.2,1.96,2.7,1.96,4.48v59.78c0,1.82-0.61,3.33-1.82,4.52
				c-1.18,1.2-2.74,1.8-4.67,1.8c-1.96,0-3.56-0.58-4.76-1.75c-1.22-1.17-1.82-2.69-1.82-4.57v-41.59l-17.19,26.02
				c-0.69,0.81-1.5,1.48-2.41,1.99c-0.92,0.52-1.85,0.75-2.8,0.68c-0.92,0.07-1.84-0.16-2.75-0.68c-0.88-0.51-1.67-1.18-2.36-1.99
				l-17.24-26.95v42.51c0,1.88-0.56,3.4-1.67,4.57c-1.12,1.17-2.58,1.75-4.37,1.75c-1.74,0-3.17-0.6-4.27-1.8
				c-1.12-1.19-1.67-2.7-1.67-4.52v-59.78c0-1.71,0.64-3.19,1.92-4.43c1.3-1.23,2.86-1.85,4.67-1.85c1.04,0,2.09,0.27,3.14,0.78
				c1.04,0.52,1.83,1.19,2.36,1.99l22.74,34.58l23.38-34.58c0.55-0.8,1.29-1.47,2.21-1.99C387.7-96.27,388.67-96.53,389.66-96.53z"
				/>
		</g>
	</g>
</g>
<g>
	<g transform="translate(215.429087, 255.713962)">
		<g>
			<path class="st2" d="M458.74-96.53c1.73,0,3.24,0.61,4.52,1.8c1.3,1.2,1.96,2.7,1.96,4.48v59.78c0,1.82-0.61,3.33-1.82,4.52
				c-1.18,1.2-2.74,1.8-4.67,1.8c-1.96,0-3.56-0.58-4.76-1.75c-1.22-1.17-1.82-2.69-1.82-4.57v-41.59l-17.19,26.02
				c-0.69,0.81-1.5,1.48-2.41,1.99c-0.92,0.52-1.85,0.75-2.8,0.68c-0.92,0.07-1.84-0.16-2.75-0.68c-0.88-0.51-1.67-1.18-2.36-1.99
				l-17.24-26.95v42.51c0,1.88-0.56,3.4-1.67,4.57c-1.12,1.17-2.58,1.75-4.37,1.75c-1.74,0-3.17-0.6-4.27-1.8
				c-1.12-1.19-1.67-2.7-1.67-4.52v-59.78c0-1.71,0.64-3.19,1.92-4.43c1.3-1.23,2.86-1.85,4.67-1.85c1.04,0,2.09,0.27,3.14,0.78
				c1.04,0.52,1.83,1.19,2.36,1.99l22.74,34.58l23.38-34.58c0.55-0.8,1.29-1.47,2.21-1.99C456.79-96.27,457.76-96.53,458.74-96.53z"
				/>
		</g>
	</g>
</g>
<g>
	<g transform="translate(247.65636, 255.713962)">
		<g>
			<path class="st0" d="M517.24-90.36c0,1.4-0.38,2.68-1.13,3.84l-21.8,30.84v25.2c0,1.82-0.59,3.33-1.77,4.52
				c-1.18,1.2-2.6,1.8-4.27,1.8c-1.74,0-3.22-0.6-4.42-1.8c-1.22-1.19-1.82-2.7-1.82-4.52v-26.61l-21.71-28.5
				c-1.25-1.65-1.87-3.27-1.87-4.86c0-1.78,0.7-3.27,2.11-4.48c1.44-1.19,2.96-1.8,4.57-1.8c1.93,0,3.63,0.96,5.11,2.87l18.37,25.1
				l17.19-24.9c1.47-2.04,3.2-3.06,5.21-3.06c1.67,0,3.12,0.62,4.37,1.85C516.61-93.64,517.24-92.13,517.24-90.36z"/>
		</g>
	</g>
</g>
</svg>
